<?xml version="1.0" standalone="no"?>
<!DOCTYPE svg PUBLIC "-//W3C//DTD SVG 1.1//EN" "http://www.w3.org/Graphics/SVG/1.1/DTD/svg11.dtd" >
<svg xmlns="http://www.w3.org/2000/svg" xmlns:xlink="http://www.w3.org/1999/xlink" version="1.1">
<metadata>
Created by FontForge 20170731 at Thu Feb 22 03:28:59 2007
 By Aleksey,,,
2007 Vic Fieger
</metadata>
<defs>
<font id="GangofThree" horiz-adv-x="1139" >
  <font-face 
    font-family="Gang of Three"
    font-weight="400"
    font-stretch="normal"
    units-per-em="2048"
    panose-1="2 0 0 0 0 0 0 0 0 0"
    ascent="1638"
    descent="-410"
    x-height="1357"
    cap-height="1360"
    bbox="-58 -357 1443 1850"
    underline-thickness="150"
    underline-position="-442"
    unicode-range="U+0020-F005"
  />
<missing-glyph horiz-adv-x="1536" 
d="M256 0v1280h1024v-1280h-1024zM288 32h960v1216h-960v-1216z" />
    <glyph glyph-name=".notdef" horiz-adv-x="1536" 
d="M256 0v1280h1024v-1280h-1024zM288 32h960v1216h-960v-1216z" />
    <glyph glyph-name=".null" horiz-adv-x="0" 
 />
    <glyph glyph-name="nonmarkingreturn" horiz-adv-x="569" 
 />
    <glyph glyph-name="space" unicode=" " horiz-adv-x="569" 
 />
    <glyph glyph-name="space" unicode="&#xa0;" horiz-adv-x="569" 
 />
    <glyph glyph-name="exclam" unicode="!" horiz-adv-x="497" 
d="M96 1360h334l-90 -997l-242 3zM99 265h241v-261l-242 1z" />
    <glyph glyph-name="quotedbl" unicode="&#x22;" horiz-adv-x="598" 
d="M69 1399h211v-407h-211v407zM341 1399h195v-407h-195v407z" />
    <glyph glyph-name="numbersign" unicode="#" 
 />
    <glyph glyph-name="dollar" unicode="$" horiz-adv-x="1028" 
d="M578 576v-309q37 12 68 36q67 49 67 119t-66 119q-31 23 -69 35zM468 1117q-55 -12 -98 -43q-67 -49 -67 -120q0 -69 67 -118q43 -32 98 -44v325zM468 594q-167 14 -287 104q-144 106 -144 258q0 150 145 257q121 90 286 104v210h110v-208q176 -11 304 -106
q62 -47 99 -102l-243 -80q-16 24 -42 43q-52 37 -118 46v-341q148 -19 259 -101q144 -106 144 -258q0 -150 -145 -256q-111 -82 -258 -101v-264h-110v258q-194 4 -332 107q-64 46 -99 101l242 80q16 -23 42 -43q62 -45 147 -49v341z" />
    <glyph glyph-name="percent" unicode="%" horiz-adv-x="1821" 
 />
    <glyph glyph-name="ampersand" unicode="&#x26;" horiz-adv-x="1167" 
d="M519 1075q-163 0 -149 -106t183 -120l549 4l-8 -268h-80q-2 -332 91 -331v-253q-309 -36 -362 347v115l164 112l-165 2l-390 2q-10 -252 42.5 -286.5t264.5 -9.5l100 -251q-236 -56 -456 -4q-94 22 -159.5 86.5t-76.5 181.5v394q24 158 145 150q-122 26 -108.5 267
t421.5 252h135l36 -284h-177z" />
    <glyph glyph-name="quotesingle" unicode="'" horiz-adv-x="353" 
d="M69 1399h211v-407h-211v407z" />
    <glyph glyph-name="parenleft" unicode="(" horiz-adv-x="626" 
d="M548 1644q-238 -533 -238 -1082q0 -426 144 -863l-137 -1q-187 489 -187 965q0 477 188 942z" />
    <glyph glyph-name="parenright" unicode=")" horiz-adv-x="626" 
d="M130 -302q238 533 238 1082q0 426 -144 863l137 1q187 -489 187 -965q0 -477 -188 -942z" />
    <glyph glyph-name="asterisk" unicode="*" horiz-adv-x="797" 
 />
    <glyph glyph-name="plus" unicode="+" horiz-adv-x="1196" 
 />
    <glyph glyph-name="comma" unicode="," horiz-adv-x="647" 
d="M227 462l241 -92l-157 -426l-258 83z" />
    <glyph glyph-name="hyphen" unicode="-" horiz-adv-x="715" 
d="M110 950l422 1l-45 -258h-422z" />
    <glyph glyph-name="hyphen" unicode="&#xad;" horiz-adv-x="715" 
d="M110 950l422 1l-45 -258h-422z" />
    <glyph glyph-name="period" unicode="." horiz-adv-x="583" 
d="M142 416h256v-316l-257 1z" />
    <glyph glyph-name="slash" unicode="/" horiz-adv-x="676" 
d="M592 1515l-421 -1860l-92 21l339 1918z" />
    <glyph glyph-name="zero" unicode="0" horiz-adv-x="1102" 
d="M206 1360h683q118 -16 125 -158l-1 -1046q5 -160 -127 -157l-685 1q-133 -10 -123 150l1 1051q-6 147 127 159zM406 1090q-115 1 -105 -58l-1 -707q15 -68 111 -58h291q89 -14 92 62l1 697q7 65 -114 64h-275zM554 885q130 22 111 -214q19 -243 -111 -214
q-127 -16 -111 214q-13 239 111 214z" />
    <glyph glyph-name="one" unicode="1" horiz-adv-x="1102" 
d="M364 1362h231q91 -13 91 -208v-884h109l-1 -269l-510 -2v272l122 -1v813h-84z" />
    <glyph glyph-name="two" unicode="2" horiz-adv-x="1102" 
d="M251 1362l653 -1q99 2 101 -157v-250q-2 -100 -79 -156l-520 -517l395 1v110h204v-392l-922 2v296l641 657l-3 142l-364 -3q-42 -1 -44 -127l-224 -2l3 267q-1 131 159 130z" />
    <glyph glyph-name="three" unicode="3" horiz-adv-x="1099" 
d="M206 1359h693q112 0 113 -142l1 -420q-5 -72 -96 -98q95 -6 94 -90l-2 -456q2 -152 -113 -153h-715q-115 -11 -103 137l2 242l243 1l3 -97h437l2 293l-378 -1l1 248l375 1l2 267h-440l-1 -79l-244 -1v218q-1 130 126 130z" />
    <glyph glyph-name="four" unicode="4" horiz-adv-x="1102" 
d="M756 1360h238v-870h76v-279l-81 1l-1 -212h-216v206h-711v284zM770 984l-384 -494h383z" />
    <glyph glyph-name="five" unicode="5" horiz-adv-x="1102" 
d="M78 1359l935 -2v-269h-696l1 -223l622 1q79 -13 80 -133v-586q-9 -143 -119 -149l-712 3q-108 12 -114 125v216h234q-21 -93 152 -83h240q111 -14 96 143q14 162 -64 160h-655v797z" />
    <glyph glyph-name="six" unicode="6" horiz-adv-x="1102" 
d="M926 1361l-2 -285h-567q-56 -1 -47 -125v-126h600q92 -9 104 -161v-464q-10 -199 -92 -200h-760q-86 2 -86 155v1048q1 157 94 159zM310 560v-297l502 1l-1 296h-501z" />
    <glyph glyph-name="seven" unicode="7" horiz-adv-x="1102" 
d="M81 1360h932v-268l-435 -1093l-276 2l458 1090l-458 2v-144h-222z" />
    <glyph glyph-name="eight" unicode="8" horiz-adv-x="1102" 
d="M180 1363h753q85 -1 83 -159l-1 -395q3 -98 -79 -123q85 -19 82 -128v-384q1 -173 -90 -174h-753q-87 0 -86 158l1 396q2 96 76 123q-77 32 -76 134v391q-1 160 90 161zM364 1091v-253h389l1 253h-390zM374 554v-269h380v269h-380z" />
    <glyph glyph-name="nine" unicode="9" horiz-adv-x="1102" 
d="M165 0l4 286h566q57 0 47 124v126h-600q-92 9 -103 162v463q9 199 90 200l761 1q87 -3 87 -156v-1048q-2 -156 -94 -158h-758zM782 802v296l-502 -2l1 -294h501z" />
    <glyph glyph-name="colon" unicode=":" horiz-adv-x="583" 
d="M142 904h256v-316l-257 1zM142 416h256v-316l-257 1z" />
    <glyph glyph-name="semicolon" unicode=";" horiz-adv-x="647" 
d="M198 903h256v-316l-257 1zM227 462l241 -92l-157 -426l-258 83z" />
    <glyph glyph-name="semicolon" unicode="&#x37e;" horiz-adv-x="647" 
d="M198 903h256v-316l-257 1zM227 462l241 -92l-157 -426l-258 83z" />
    <glyph glyph-name="less" unicode="&#x3c;" horiz-adv-x="1196" 
 />
    <glyph glyph-name="equal" unicode="=" horiz-adv-x="1196" 
 />
    <glyph glyph-name="greater" unicode="&#x3e;" horiz-adv-x="1196" 
 />
    <glyph glyph-name="question" unicode="?" horiz-adv-x="1019" 
d="M234 1359h626q98 -29 99 -121l2 -312q-24 -75 -76 -132l-174 -167q-66 -64 -66 -184l-1 -120l-291 2l1 232q0 68 64 133l256 254l1 74q27 75 -136 66l-129 1q-95 19 -90 -76l-263 3v233q34 110 177 114zM359 257h282v-250l-285 -4z" />
    <glyph glyph-name="at" unicode="@" horiz-adv-x="2079" 
 />
    <glyph glyph-name="A" unicode="A" horiz-adv-x="1306" 
d="M594 1460l246 -93l-29 -96h396l-41 -296l-216 -1l343 -919l-265 -91l-352 940l-393 -932l-269 82l388 924l-283 1l22 292h374zM721 440l153 -168l-283 -284l-154 166z" />
    <glyph glyph-name="B" unicode="B" horiz-adv-x="1150" 
d="M101 1359h624q201 -11 244 -95t35 -180t-143 -244q210 8 234 -150v-436q-11 -117 -76.5 -181.5t-159.5 -86.5q-220 -52 -456 46l100 251q212 -67 264.5 -32.5t42.5 345.5l-378 -2v-246q-53 -383 -362 -347v253q93 -1 78 158v173h-80l1 255l102 -2v237h-106zM432 1075
v-224l129 28q136 73 124 196h-253z" />
    <glyph glyph-name="C" unicode="C" horiz-adv-x="1247" 
d="M922 1357q266 -63 282 -395h-265q-4 105 -135 95h-356q-110 -238 -115.5 -360t63 -229.5t149 -153t221.5 -31.5t261 182l179 -223q-156 -151 -253 -201.5t-256.5 -52.5t-291.5 62t-242 237.5t-98 395.5t58 285l199 89h-238l16 95l23 91l44 114h755z" />
    <glyph glyph-name="D" unicode="D" horiz-adv-x="1217" 
d="M93 1359h882l192 -1v-608q12 -153 -29.5 -293.5t-160 -274t-261 -164.5t-655.5 -19l2 284l190 2l-112 56v721h-96zM430 1062v-785q152 -21 262 46.5t147 169t23 569.5h-432z" />
    <glyph glyph-name="E" unicode="E" horiz-adv-x="1107" 
d="M106 1362h963l-80 -302l-486 -2v-149h533l-48 -272l-492 1q-15 -216 26.5 -285.5t138.5 -70.5h366l-49 -283q-441 -10 -511.5 27.5t-147 124t-96.5 254.5v233l-165 -1l41 274l135 -1v156l-176 -1z" />
    <glyph glyph-name="F" unicode="F" horiz-adv-x="1036" 
d="M99 1360h891l-64 -287h-462l-1 -332l36 136l369 -75l-56 -297l-352 70l1 -538l-300 -63v1032l145 67h-256z" />
    <glyph glyph-name="G" unicode="G" horiz-adv-x="1294" 
d="M145 1352h1053l-50 -300h-719v-635q-11 -136 151 -117h358l-1 235l-240 -1v284l535 -1v-817l-1 -78l-290 -56v238l-111 -104l-429 -1q-145 21 -208 110.5t-64 257.5v597l176 88l-262 -1z" />
    <glyph glyph-name="H" unicode="H" horiz-adv-x="1193" 
d="M56 1356h302v-464l440 3v457l302 2v-471h52l24 -275h-76v-440q-30 -90 -75 -119.5t-140.5 -45t-191.5 -15.5l-2 264q92 6 114 76v279l-367 1l-80 127v-715l-300 -51z" />
    <glyph glyph-name="I" unicode="I" horiz-adv-x="698" 
d="M85 1360h545l-40 -288h-88v-795h112l-16 -279h-545l27 281l117 -1l2 723l126 71h-269z" />
    <glyph glyph-name="J" unicode="J" horiz-adv-x="698" 
d="M169 1357h470v-1045q-5 -136 -33.5 -235.5t-165.5 -204t-359 -127.5l-24 300q140 12 220 114.5t66 842.5l136 70h-378z" />
    <glyph glyph-name="K" unicode="K" horiz-adv-x="1171" 
d="M859 1391l207 -207l-444 -447q224 -407 287.5 -419t151.5 62l109 -269q-109 -117 -207.5 -127.5t-197.5 25.5t-367 538l-61 -66v-482h-285v1361h284l1 -491z" />
    <glyph glyph-name="L" unicode="L" horiz-adv-x="1035" 
d="M152 1363h297l-1 -715l170 -2l-29 -240l-133 -1v-89l534 1l-31 -314l-921 2l45 309h63v89h-98l26 244l76 1z" />
    <glyph glyph-name="M" unicode="M" horiz-adv-x="1403" 
d="M534 1456l316 -3v-98h339q124 -19 137 -138l-2 -907q-51 -216 -143 -274.5t-227 -58.5v303q82 -7 69 387v385h-170v-1008l-322 -57l1 1065h-132v-1025l-322 -41l-1 1009l109 65h-139l83 295h404v101z" />
    <glyph glyph-name="N" unicode="N" horiz-adv-x="1205" 
d="M52 1357h290l-1 -216l34 84q191 -51 282.5 -114.5t189.5 -207.5l14 -40l-1 492h288v-1122q7 -77 -66.5 -163.5t-301.5 -74.5v283q100 8 84 129q1 68 -29.5 147.5t-190 212t-303.5 172.5v-944h-291z" />
    <glyph glyph-name="O" unicode="O" horiz-adv-x="1247" 
d="M342 1363v-131l78 131h660q122 -34 115 -344v-901q-24 -110 -187 -115h-763q-170 -7 -197 148v1151zM342 1068v-770h558v770h-558z" />
    <glyph glyph-name="P" unicode="P" horiz-adv-x="1145" 
d="M933 1356q152 -28 157 -202l-2 -508q-14 -156 -165 -153h-411l-96 172v-454q-24 -152 -103 -188.5t-252 -34.5l-1 263q72 -17 65 201v531l156 87l-235 1l59 285h828zM408 1070l1 -258l379 -1v259h-380z" />
    <glyph glyph-name="Q" unicode="Q" horiz-adv-x="1259" 
d="M118 1362h951q144 -65 132 -259l-1 -916q-11 -176 -165 -186h-311l413 -89l-59 -269l-555 101l53 257l-389 -1q-104 15 -136 230v765l121 68l-123 -1zM347 1067v-896l68 125h490v771h-558z" />
    <glyph glyph-name="R" unicode="R" horiz-adv-x="1167" 
d="M109 1360h862q91 -11 125 -117l-2 -402q-29 -139 -84 -186.5t-196 -109.5l79 -126q88 -138 249 -159l-23 -308l-161 30q-157 32 -332 328l-63 120l-157 -74l-1 -357l-280 -2v266l-110 235l108 68l2 421l137 76l-216 -1zM406 1062v-385l299 118q109 40 109 129v138h-408z
" />
    <glyph glyph-name="S" unicode="S" horiz-adv-x="1112" 
d="M95 1362l742 1q121 -30 156.5 -135t35.5 -184l-262 -52q0 94 -177 80h-206l629 -616q70 -90 18 -303q-52 -136 -257 -154l-505 1q-88 29 -139 111.5t-79 204.5l274 93q11 -114 92 -110l267 -1q61 14 -20 88l-585 572l144 114h-184z" />
    <glyph glyph-name="T" unicode="T" horiz-adv-x="1015" 
d="M70 1360h908l-37 -300h-323v-649q-17 -151 102 -179l-73 -282q-137 -4 -231.5 89t-97.5 246v715l129 62l-407 1z" />
    <glyph glyph-name="U" unicode="U" horiz-adv-x="1243" 
d="M373 1376q-57 -526 -15.5 -705t132.5 -283t412 -50l-1 1024l290 -17v-1310l-290 -29v165l-52 -181l-63 -14q-281 -5 -424.5 79t-236.5 341t-76 742l17 185z" />
    <glyph glyph-name="V" unicode="V" horiz-adv-x="1303" 
d="M298 1377l364 -1023q183 148 237 325t41 386l-146 -1l33 297l405 2q57 -232 19 -483.5t-122 -419t-252 -368.5l-144 55l68 -191l-305 -115l-493 1456z" />
    <glyph glyph-name="W" unicode="W" horiz-adv-x="1451" 
d="M287 1367l168 -824q122 103 141 212.5t-34 309.5h-116l45 294l345 -1l170 -791q74 46 109 172.5t-17 333.5h-108l49 286l315 -1q91 -502 51.5 -667t-96 -265t-169.5 -199l-80 55l67 -313l-285 -104l-123 563q-41 -130 -129 -199l-66 32l56 -292l-268 -119l-316 1448z" />
    <glyph glyph-name="X" unicode="X" horiz-adv-x="1260" 
d="M266 1398l434 -586q176 253 279 559l279 -112q-133 -348 -387 -672l363 -487l-252 -201l-317 433q-95 -113 -193.5 -197t-266.5 -177l-206 218q343 225 506 395l-479 639z" />
    <glyph glyph-name="Y" unicode="Y" horiz-adv-x="1083" 
d="M220 1357l380 -745q104 105 144.5 280.5t21.5 424.5l278 -11q-5 -530 -113.5 -740.5t-267 -378t-381.5 -309.5l-119 282l257 210l-417 803z" />
    <glyph glyph-name="Z" unicode="Z" horiz-adv-x="1158" 
d="M144 1359h920l-33 -295q-282 -157 -461 -382t-196 -389l408 1q79 27 125 119l222 -147q-83 -181 -173 -230t-227 -36h-490q-78 -7 -125.5 39t-57.5 130.5t6 177.5t164 314.5t363 405.5h-546z" />
    <glyph glyph-name="bracketleft" unicode="[" horiz-adv-x="569" 
 />
    <glyph glyph-name="backslash" unicode="\" horiz-adv-x="569" 
 />
    <glyph glyph-name="bracketright" unicode="]" horiz-adv-x="569" 
 />
    <glyph glyph-name="asciicircum" unicode="^" horiz-adv-x="961" 
 />
    <glyph glyph-name="underscore" unicode="_" 
 />
    <glyph glyph-name="grave" unicode="`" horiz-adv-x="596" 
d="M492 1606l-84 -99l-292 234l140 109z" />
    <glyph glyph-name="a" unicode="a" horiz-adv-x="1306" 
d="M594 1460l246 -93l-29 -96h396l-41 -296l-216 -1l343 -919l-265 -91l-352 940l-393 -932l-269 82l388 924l-283 1l22 292h374zM721 440l153 -168l-283 -284l-154 166z" />
    <glyph glyph-name="b" unicode="b" horiz-adv-x="1150" 
d="M101 1359h624q201 -11 244 -95t35 -180t-143 -244q210 8 234 -150v-436q-11 -117 -76.5 -181.5t-159.5 -86.5q-220 -52 -456 46l100 251q212 -67 264.5 -32.5t42.5 345.5l-378 -2v-246q-53 -383 -362 -347v253q93 -1 78 158v173h-80l1 255l102 -2v237h-106zM432 1075
v-224l129 28q136 73 124 196h-253z" />
    <glyph glyph-name="c" unicode="c" horiz-adv-x="1247" 
d="M922 1357q266 -63 282 -395h-265q-4 105 -135 95h-356q-110 -238 -115.5 -360t63 -229.5t149 -153t221.5 -31.5t261 182l179 -223q-156 -151 -253 -201.5t-256.5 -52.5t-291.5 62t-242 237.5t-98 395.5t58 285l199 89h-238l16 95l23 91l44 114h755z" />
    <glyph glyph-name="d" unicode="d" horiz-adv-x="1217" 
d="M93 1359h882l192 -1v-608q12 -153 -29.5 -293.5t-160 -274t-261 -164.5t-655.5 -19l2 284l190 2l-112 56v721h-96zM430 1062v-785q152 -21 262 46.5t147 169t23 569.5h-432z" />
    <glyph glyph-name="e" unicode="e" horiz-adv-x="1163" 
d="M59 1352h989v-285l-571 -1v-159l452 -1l-32 -275h-420v-353l588 68l84 -302l-1042 -131l-32 302l118 20v394h-124l28 257l98 1l-1 116l161 59l-296 -1v291z" />
    <glyph glyph-name="f" unicode="f" horiz-adv-x="1036" 
d="M99 1360h891l-64 -287h-462l-1 -332l36 136l369 -75l-56 -297l-352 70l1 -538l-300 -63v1032l145 67h-256z" />
    <glyph glyph-name="g" unicode="g" horiz-adv-x="1294" 
d="M145 1352h1053l-50 -300h-719v-635q-11 -136 151 -117h358l-1 235l-240 -1v284l535 -1v-817l-1 -78l-290 -56v238l-111 -104l-429 -1q-145 21 -208 110.5t-64 257.5v597l176 88l-262 -1z" />
    <glyph glyph-name="h" unicode="h" horiz-adv-x="1193" 
d="M56 1356h302v-464l440 3v457l302 2v-471h52l24 -275h-76v-440q-30 -90 -75 -119.5t-140.5 -45t-191.5 -15.5l-2 264q92 6 114 76v279l-367 1l-80 127v-715l-300 -51z" />
    <glyph glyph-name="i" unicode="i" horiz-adv-x="457" 
d="M385 1367l-1 -1366h-301l-1 1320z" />
    <glyph glyph-name="j" unicode="j" horiz-adv-x="698" 
d="M169 1357h470v-1045q-5 -136 -33.5 -235.5t-165.5 -204t-359 -127.5l-24 300q140 12 220 114.5t66 842.5l136 70h-378z" />
    <glyph glyph-name="k" unicode="k" horiz-adv-x="1171" 
d="M859 1391l207 -207l-444 -447q224 -407 287.5 -419t151.5 62l109 -269q-109 -117 -207.5 -127.5t-197.5 25.5t-367 538l-61 -66v-482h-285v1361h284l1 -491z" />
    <glyph glyph-name="l" unicode="l" horiz-adv-x="1035" 
d="M152 1363h297l-1 -715l170 -2l-29 -240l-133 -1v-89l534 1l-31 -314l-921 2l45 309h63v89h-98l26 244l76 1z" />
    <glyph glyph-name="m" unicode="m" horiz-adv-x="1403" 
d="M534 1456l316 -3v-98h339q124 -19 137 -138l-2 -907q-51 -216 -143 -274.5t-227 -58.5v303q82 -7 69 387v385h-170v-1008l-322 -57l1 1065h-132v-1025l-322 -41l-1 1009l109 65h-139l83 295h404v101z" />
    <glyph glyph-name="n" unicode="n" horiz-adv-x="1205" 
d="M52 1357h290l-1 -216l34 84q191 -51 282.5 -114.5t189.5 -207.5l14 -40l-1 492h288v-1122q7 -77 -66.5 -163.5t-301.5 -74.5v283q100 8 84 129q1 68 -29.5 147.5t-190 212t-303.5 172.5v-944h-291z" />
    <glyph glyph-name="o" unicode="o" horiz-adv-x="1247" 
d="M342 1363v-131l78 131h660q122 -34 115 -344v-901q-24 -110 -187 -115h-763q-170 -7 -197 148v1151zM342 1068v-770h558v770h-558z" />
    <glyph glyph-name="p" unicode="p" horiz-adv-x="1145" 
d="M933 1356q152 -28 157 -202l-2 -508q-14 -156 -165 -153h-411l-96 172v-454q-24 -152 -103 -188.5t-252 -34.5l-1 263q72 -17 65 201v531l156 87l-235 1l59 285h828zM408 1070l1 -258l379 -1v259h-380z" />
    <glyph glyph-name="q" unicode="q" horiz-adv-x="1259" 
d="M118 1362h951q144 -65 132 -259l-1 -916q-11 -176 -165 -186h-311l413 -89l-59 -269l-555 101l53 257l-389 -1q-104 15 -136 230v765l121 68l-123 -1zM347 1067v-896l68 125h490v771h-558z" />
    <glyph glyph-name="r" unicode="r" horiz-adv-x="1167" 
d="M109 1360h862q91 -11 125 -117l-2 -402q-29 -139 -84 -186.5t-196 -109.5l79 -126q88 -138 249 -159l-23 -308l-161 30q-157 32 -332 328l-63 120l-157 -74l-1 -357l-280 -2v266l-110 235l108 68l2 421l137 76l-216 -1zM406 1062v-385l299 118q109 40 109 129v138h-408z
" />
    <glyph glyph-name="s" unicode="s" horiz-adv-x="1112" 
d="M95 1362l742 1q121 -30 156.5 -135t35.5 -184l-262 -52q0 94 -177 80h-206l629 -616q70 -90 18 -303q-52 -136 -257 -154l-505 1q-88 29 -139 111.5t-79 204.5l274 93q11 -114 92 -110l267 -1q61 14 -20 88l-585 572l144 114h-184z" />
    <glyph glyph-name="t" unicode="t" horiz-adv-x="1015" 
d="M70 1360h908l-37 -300h-323v-649q-17 -151 102 -179l-73 -282q-137 -4 -231.5 89t-97.5 246v715l129 62l-407 1z" />
    <glyph glyph-name="u" unicode="u" horiz-adv-x="1243" 
d="M373 1376q-57 -526 -15.5 -705t132.5 -283t412 -50l-1 1024l290 -17v-1310l-290 -29v165l-52 -181l-63 -14q-281 -5 -424.5 79t-236.5 341t-76 742l17 185z" />
    <glyph glyph-name="v" unicode="v" horiz-adv-x="1303" 
d="M298 1377l364 -1023q183 148 237 325t41 386l-146 -1l33 297l405 2q57 -232 19 -483.5t-122 -419t-252 -368.5l-144 55l68 -191l-305 -115l-493 1456z" />
    <glyph glyph-name="w" unicode="w" horiz-adv-x="1451" 
d="M287 1367l168 -824q122 103 141 212.5t-34 309.5h-116l45 294l345 -1l170 -791q74 46 109 172.5t-17 333.5h-108l49 286l315 -1q91 -502 51.5 -667t-96 -265t-169.5 -199l-80 55l67 -313l-285 -104l-123 563q-41 -130 -129 -199l-66 32l56 -292l-268 -119l-316 1448z" />
    <glyph glyph-name="x" unicode="x" horiz-adv-x="1260" 
d="M266 1398l434 -586q176 253 279 559l279 -112q-133 -348 -387 -672l363 -487l-252 -201l-317 433q-95 -113 -193.5 -197t-266.5 -177l-206 218q343 225 506 395l-479 639z" />
    <glyph glyph-name="y" unicode="y" horiz-adv-x="1083" 
d="M220 1357l380 -745q104 105 144.5 280.5t21.5 424.5l278 -11q-5 -530 -113.5 -740.5t-267 -378t-381.5 -309.5l-119 282l257 210l-417 803z" />
    <glyph glyph-name="z" unicode="z" horiz-adv-x="1158" 
d="M144 1359h920l-33 -295q-282 -157 -461 -382t-196 -389l408 1q79 27 125 119l222 -147q-83 -181 -173 -230t-227 -36h-490q-78 -7 -125.5 39t-57.5 130.5t6 177.5t164 314.5t363 405.5h-546z" />
    <glyph glyph-name="braceleft" unicode="{" horiz-adv-x="684" 
 />
    <glyph glyph-name="bar" unicode="|" horiz-adv-x="532" 
 />
    <glyph glyph-name="braceright" unicode="}" horiz-adv-x="684" 
 />
    <glyph glyph-name="asciitilde" unicode="~" horiz-adv-x="1196" 
 />
    <glyph glyph-name="exclamdown" unicode="&#xa1;" horiz-adv-x="510" 
d="M411 4h-334l90 997l242 -3zM408 1099h-241v261l242 -1z" />
    <glyph glyph-name="cent" unicode="&#xa2;" 
 />
    <glyph glyph-name="sterling" unicode="&#xa3;" 
 />
    <glyph glyph-name="yen" unicode="&#xa5;" 
 />
    <glyph glyph-name="brokenbar" unicode="&#xa6;" horiz-adv-x="532" 
 />
    <glyph glyph-name="section" unicode="&#xa7;" 
 />
    <glyph glyph-name="dieresis" unicode="&#xa8;" horiz-adv-x="643" 
d="M274 1548l-124 -25l-125 227l234 46zM377 1796l238 -51l-132 -227l-117 29z" />
    <glyph glyph-name="copyright" unicode="&#xa9;" horiz-adv-x="1509" 
 />
    <glyph glyph-name="ordfeminine" unicode="&#xaa;" horiz-adv-x="758" 
 />
    <glyph glyph-name="guillemotleft" unicode="&#xab;" horiz-adv-x="951" 
d="M72 743l385 394l88 -95l-315 -325l315 -324l-88 -77l-385 399v28zM381 742l385 395l88 -96l-315 -325l315 -324l-88 -76l-385 399v27z" />
    <glyph glyph-name="logicalnot" unicode="&#xac;" horiz-adv-x="1196" 
 />
    <glyph glyph-name="registered" unicode="&#xae;" horiz-adv-x="1509" 
 />
    <glyph glyph-name="overscore" unicode="&#xaf;" horiz-adv-x="1131" 
 />
    <glyph glyph-name="degree" unicode="&#xb0;" horiz-adv-x="819" 
 />
    <glyph glyph-name="plusminus" unicode="&#xb1;" horiz-adv-x="1124" 
 />
    <glyph glyph-name="twosuperior" unicode="&#xb2;" horiz-adv-x="682" 
 />
    <glyph glyph-name="threesuperior" unicode="&#xb3;" horiz-adv-x="682" 
 />
    <glyph glyph-name="acute" unicode="&#xb4;" horiz-adv-x="596" 
d="M352 1850l140 -109l-292 -234l-84 99z" />
    <glyph glyph-name="mu1" unicode="&#xb5;" horiz-adv-x="1180" 
 />
    <glyph glyph-name="paragraph" unicode="&#xb6;" horiz-adv-x="1100" 
 />
    <glyph glyph-name="periodcentered" unicode="&#xb7;" horiz-adv-x="569" 
 />
    <glyph glyph-name="periodcentered" unicode="&#x2219;" horiz-adv-x="569" 
 />
    <glyph glyph-name="cedilla" unicode="&#xb8;" horiz-adv-x="799" 
d="M260 -34l126 84q150 -152 150 -247q0 -130 -276 -156l-37 93q286 23 37 226z" />
    <glyph glyph-name="onesuperior" unicode="&#xb9;" horiz-adv-x="682" 
 />
    <glyph glyph-name="ordmasculine" unicode="&#xba;" horiz-adv-x="748" 
 />
    <glyph glyph-name="guillemotright" unicode="&#xbb;" horiz-adv-x="951" 
d="M883 715l-385 -399l-88 77l315 324l-315 324l88 96l385 -394v-28zM574 714l-385 -398l-88 76l315 324l-315 325l88 95l385 -394v-28z" />
    <glyph glyph-name="onequarter" unicode="&#xbc;" horiz-adv-x="1708" 
 />
    <glyph glyph-name="onehalf" unicode="&#xbd;" horiz-adv-x="1708" 
 />
    <glyph glyph-name="threequarters" unicode="&#xbe;" horiz-adv-x="1708" 
 />
    <glyph glyph-name="questiondown" unicode="&#xbf;" horiz-adv-x="1019" 
d="M784 3h-626q-98 29 -99 121l-2 312q24 75 76 132l174 167q66 64 66 184l1 120l291 -2l-1 -232q0 -68 -64 -133l-256 -254l-1 -74q-27 -75 136 -66l129 -1q95 -19 90 76l263 -3v-233q-34 -110 -177 -114zM659 1105h-282v250l285 4z" />
    <glyph glyph-name="Agrave" unicode="&#xc0;" horiz-adv-x="1306" 
d="M597 1460l246 -93l-29 -96h396l-41 -296l-216 -1l343 -919l-265 -91l-352 940l-393 -932l-269 82l388 924l-283 1l22 292h374zM724 440l153 -168l-283 -284l-154 166zM773 1606l-84 -99l-292 234l140 109z" />
    <glyph glyph-name="Aacute" unicode="&#xc1;" horiz-adv-x="1306" 
d="M594 1460l246 -93l-29 -96h396l-41 -296l-216 -1l343 -919l-265 -91l-352 940l-393 -932l-269 82l388 924l-283 1l22 292h374zM721 440l153 -168l-283 -284l-154 166zM849 1850l139 -109l-292 -234l-83 99z" />
    <glyph glyph-name="Acircumflex" unicode="&#xc2;" horiz-adv-x="1306" 
d="M594 1460l246 -93l-29 -96h396l-41 -296l-216 -1l343 -919l-265 -91l-352 940l-393 -932l-269 82l388 924l-283 1l22 292h374zM721 440l153 -168l-283 -284l-154 166zM922 1606l-83 -99l-153 122l-153 -122l-84 99l236 244l1 -1l1 1z" />
    <glyph glyph-name="Atilde" unicode="&#xc3;" horiz-adv-x="1306" 
d="M594 1460l246 -93l-29 -96h396l-41 -296l-216 -1l343 -919l-265 -91l-352 940l-393 -932l-269 82l388 924l-283 1l22 292h374zM721 440l153 -168l-283 -284l-154 166zM385 1508l-75 137q116 259 344 132q245 -149 299 58l74 -137q-126 -272 -359 -117q-216 133 -283 -73z
" />
    <glyph glyph-name="Adieresis" unicode="&#xc4;" horiz-adv-x="1306" 
d="M594 1460l246 -93l-29 -96h396l-41 -296l-216 -1l343 -919l-265 -91l-352 940l-393 -932l-269 82l388 924l-283 1l22 292h374zM721 440l153 -168l-283 -284l-154 166zM621 1547l-125 -25l-124 228l233 46zM724 1796l237 -51l-131 -227l-117 29z" />
    <glyph glyph-name="Aring" unicode="&#xc5;" horiz-adv-x="1366" 
 />
    <glyph glyph-name="AE" unicode="&#xc6;" horiz-adv-x="1472" 
d="M486 482l-214 -509l-269 81l388 924l-283 1l22 292h374l79 189l246 -93l-28 -94h642l-80 -302l-359 -2v-216h406l-48 -272l-365 1q-15 -60 26.5 -129.5t138.5 -70.5h240l-49 -282q-315 -10 -385.5 27t-147 123.5t-96.5 254.5v77h-238zM735 970l-45 -3l-89 -212l134 -1
v216z" />
    <glyph glyph-name="Ccedilla" unicode="&#xc7;" horiz-adv-x="1247" 
d="M922 1357q266 -63 282 -395h-265q-4 105 -135 95h-356q-110 -238 -115.5 -360t63 -229.5t149 -153t221.5 -31.5t261 182l179 -223q-156 -151 -253 -201.5t-256.5 -52.5t-291.5 62t-242 237.5t-98 395.5t58 285l199 89h-238l16 95l23 91l44 114h755zM530 -34l126 84
q150 -152 150 -247q0 -130 -276 -156l-37 93q286 23 37 226z" />
    <glyph glyph-name="Egrave" unicode="&#xc8;" horiz-adv-x="1163" 
d="M59 1352h989v-285l-571 -1v-159l452 -1l-32 -275h-420v-353l588 68l84 -302l-1042 -131l-32 302l118 20v394h-124l28 257l98 1l-1 116l161 59l-296 -1v291zM681 1606l-84 -99l-292 234l140 109z" />
    <glyph glyph-name="Eacute" unicode="&#xc9;" horiz-adv-x="1163" 
d="M59 1352h989v-285l-571 -1v-159l452 -1l-32 -275h-420v-353l588 68l84 -302l-1042 -131l-32 302l118 20v394h-124l28 257l98 1l-1 116l161 59l-296 -1v291zM713 1850l140 -109l-292 -233l-84 98z" />
    <glyph glyph-name="Ecircumflex" unicode="&#xca;" horiz-adv-x="1163" 
d="M59 1352h989v-285l-571 -1v-159l452 -1l-32 -275h-420v-353l588 68l84 -302l-1042 -131l-32 302l118 20v394h-124l28 257l98 1l-1 116l161 59l-296 -1v291zM837 1606l-83 -99l-153 123l-153 -123l-84 99l236 244l1 -1l1 1z" />
    <glyph glyph-name="Edieresis" unicode="&#xcb;" horiz-adv-x="1163" 
d="M59 1352h989v-285l-571 -1v-159l452 -1l-32 -275h-420v-353l588 68l84 -302l-1042 -131l-32 302l118 20v394h-124l28 257l98 1l-1 116l161 59l-296 -1v291zM556 1548l-125 -25l-124 227l233 46zM659 1797l237 -51l-131 -227l-117 29z" />
    <glyph glyph-name="Igrave" unicode="&#xcc;" horiz-adv-x="457" 
d="M386 1367l-1 -1366h-301l-1 1320zM342 1607l-84 -99l-292 233l140 109z" />
    <glyph glyph-name="Iacute" unicode="&#xcd;" horiz-adv-x="457" 
d="M385 1367l-1 -1366h-301l-1 1320zM384 1850l139 -109l-292 -234l-83 99z" />
    <glyph glyph-name="Icircumflex" unicode="&#xce;" horiz-adv-x="457" 
d="M385 1367l-1 -1366h-302v1320zM421 1606l-66 -99l-122 123l-123 -123l-67 99l189 244l1 -1v1z" />
    <glyph glyph-name="Idieresis" unicode="&#xcf;" horiz-adv-x="457" 
d="M385 1367v-1366h-302l-1 1320zM191 1548l-124 -25l-125 227l234 46zM294 1796l238 -51l-132 -227l-117 29z" />
    <glyph glyph-name="Eth" unicode="&#xd0;" horiz-adv-x="1479" 
 />
    <glyph glyph-name="Ntilde" unicode="&#xd1;" horiz-adv-x="1205" 
d="M52 1357h290l-1 -216l34 84q191 -51 282.5 -114.5t189.5 -207.5l14 -40l-1 492h288v-1122q7 -77 -66.5 -163.5t-301.5 -74.5v283q100 8 84 129q1 68 -29.5 147.5t-190 212t-303.5 172.5v-944h-291zM308 1507l-75 137q116 259 344 132q245 -148 298 58l75 -136
q-127 -273 -359 -118q-216 134 -283 -73z" />
    <glyph glyph-name="Ograve" unicode="&#xd2;" horiz-adv-x="1247" 
d="M342 1363v-131l78 131h660q122 -34 115 -344v-901q-24 -110 -187 -115h-763q-170 -7 -197 148v1151zM342 1068v-770h558v770h-558zM752 1606l-84 -98l-292 233l140 109z" />
    <glyph glyph-name="Oacute" unicode="&#xd3;" horiz-adv-x="1247" 
d="M342 1363v-131l78 131h660q122 -34 115 -344v-901q-24 -110 -187 -115h-763q-170 -7 -197 148v1151zM342 1068v-770h558v770h-558zM802 1850l140 -109l-292 -234l-84 99z" />
    <glyph glyph-name="Ocircumflex" unicode="&#xd4;" horiz-adv-x="1247" 
d="M342 1363v-131l78 131h660q122 -34 115 -344v-901q-24 -110 -187 -115h-763q-170 -7 -197 148v1151zM342 1068v-770h558v770h-558zM870 1606l-83 -99l-153 123l-153 -123l-84 99l236 244h1h1z" />
    <glyph glyph-name="Otilde" unicode="&#xd5;" horiz-adv-x="1247" 
d="M342 1363v-131l78 131h660q122 -34 115 -344v-901q-24 -110 -187 -115h-763q-170 -7 -197 148v1151zM342 1068v-770h558v770h-558zM362 1507l-75 137q115 259 344 132q244 -148 298 58l75 -136q-127 -273 -359 -118q-216 134 -283 -73z" />
    <glyph glyph-name="Odieresis" unicode="&#xd6;" horiz-adv-x="1247" 
d="M342 1363v-131l78 131h660q122 -34 115 -344v-901q-24 -110 -187 -115h-763q-170 -7 -197 148v1151zM342 1068v-770h558v770h-558zM590 1548l-125 -25l-124 227l233 46zM693 1797l237 -51l-131 -227l-117 29z" />
    <glyph glyph-name="multiply" unicode="&#xd7;" horiz-adv-x="1196" 
 />
    <glyph glyph-name="Oslash" unicode="&#xd8;" horiz-adv-x="1593" 
 />
    <glyph glyph-name="Ugrave" unicode="&#xd9;" horiz-adv-x="1243" 
d="M373 1376q-57 -526 -15.5 -705t132.5 -283t412 -50l-1 1024l290 -17v-1310l-290 -29v165l-52 -181l-63 -14q-281 -5 -424.5 79t-236.5 341t-76 742l17 185zM749 1606l-84 -98l-292 233l140 109z" />
    <glyph glyph-name="Uacute" unicode="&#xda;" horiz-adv-x="1243" 
d="M373 1376q-57 -526 -15.5 -705t132.5 -283t412 -50l-1 1024l290 -17v-1310l-290 -29v165l-52 -181l-63 -14q-281 -5 -424.5 79t-236.5 341t-76 742l17 185zM836 1850l140 -109l-292 -234l-84 99z" />
    <glyph glyph-name="Ucircumflex" unicode="&#xdb;" horiz-adv-x="1243" 
d="M373 1376q-57 -526 -15.5 -705t132.5 -283t412 -50l-1 1024l290 -17v-1310l-290 -29v165l-52 -181l-63 -14q-281 -5 -424.5 79t-236.5 341t-76 742l17 185zM885 1606l-83 -99l-153 123l-153 -123l-84 99l236 244h1h1z" />
    <glyph glyph-name="Udieresis" unicode="&#xdc;" horiz-adv-x="1243" 
d="M373 1376q-57 -526 -15.5 -705t132.5 -283t412 -50l-1 1024l290 -17v-1310l-290 -29v165l-52 -181l-63 -14q-281 -5 -424.5 79t-236.5 341t-76 742l17 185zM607 1548l-125 -25l-124 227l233 46zM710 1796l237 -51l-131 -227l-117 29z" />
    <glyph glyph-name="Yacute" unicode="&#xdd;" horiz-adv-x="1366" 
 />
    <glyph glyph-name="Thorn" unicode="&#xde;" horiz-adv-x="1366" 
 />
    <glyph glyph-name="germandbls" unicode="&#xdf;" horiz-adv-x="1157" 
d="M706 1076l-103 -2q-251 -50 -252 -178l1 -932l-284 63l1 866q-2 415 539 467l316 3l121 -280l-210 -326q261 -22 269.5 -293.5t-71.5 -363.5t-174 -114q-220 -52 -355 16l-1 303q212 -76 264.5 -41.5t47 146t-277.5 112.5l-84 209z" />
    <glyph glyph-name="agrave" unicode="&#xe0;" horiz-adv-x="1306" 
d="M597 1460l246 -93l-29 -96h396l-41 -296l-216 -1l343 -919l-265 -91l-352 940l-393 -932l-269 82l388 924l-283 1l22 292h374zM724 440l153 -168l-283 -284l-154 166zM773 1606l-84 -99l-292 234l140 109z" />
    <glyph glyph-name="aacute" unicode="&#xe1;" horiz-adv-x="1306" 
d="M594 1460l246 -93l-29 -96h396l-41 -296l-216 -1l343 -919l-265 -91l-352 940l-393 -932l-269 82l388 924l-283 1l22 292h374zM721 440l153 -168l-283 -284l-154 166zM849 1850l140 -109l-292 -234l-84 99z" />
    <glyph glyph-name="acircumflex" unicode="&#xe2;" horiz-adv-x="1306" 
d="M594 1460l246 -93l-29 -96h396l-41 -296l-216 -1l343 -919l-265 -91l-352 940l-393 -932l-269 82l388 924l-283 1l22 292h374zM721 440l153 -168l-283 -284l-154 166zM922 1606l-83 -99l-153 123l-153 -123l-84 99l236 244l1 -1l1 1z" />
    <glyph glyph-name="atilde" unicode="&#xe3;" horiz-adv-x="1306" 
d="M594 1460l246 -93l-29 -96h396l-41 -296l-216 -1l343 -919l-265 -91l-352 940l-393 -932l-269 82l388 924l-283 1l22 292h374zM721 440l153 -168l-283 -284l-154 166zM385 1508l-75 136q116 260 344 132q245 -148 299 59l74 -137q-126 -272 -359 -117q-216 133 -283 -73z
" />
    <glyph glyph-name="adieresis" unicode="&#xe4;" horiz-adv-x="1306" 
d="M594 1460l246 -93l-29 -96h396l-41 -296l-216 -1l343 -919l-265 -91l-352 940l-393 -932l-269 82l388 924l-283 1l22 292h374zM721 440l153 -168l-283 -284l-154 166zM621 1548l-124 -25l-125 227l234 46zM724 1796l238 -51l-132 -227l-117 29z" />
    <glyph glyph-name="aring" unicode="&#xe5;" 
 />
    <glyph glyph-name="ae" unicode="&#xe6;" horiz-adv-x="1472" 
d="M486 482l-214 -509l-269 81l388 924l-283 1l22 292h374l79 189l246 -93l-28 -94h642l-80 -302l-359 -2v-216h406l-48 -272l-365 1q-15 -60 26.5 -129.5t138.5 -70.5h240l-49 -282q-315 -10 -385.5 27t-147 123.5t-96.5 254.5v77h-238zM735 970l-45 -3l-89 -212l134 -1
v216z" />
    <glyph glyph-name="ccedilla" unicode="&#xe7;" horiz-adv-x="1247" 
d="M922 1357q266 -63 282 -395h-265q-4 105 -135 95h-356q-110 -238 -115.5 -360t63 -229.5t149 -153t221.5 -31.5t261 182l179 -223q-156 -151 -253 -201.5t-256.5 -52.5t-291.5 62t-242 237.5t-98 395.5t58 285l199 89h-238l16 95l23 91l44 114h755zM530 -34l126 84
q150 -152 150 -247q0 -130 -276 -156l-37 93q286 23 37 226z" />
    <glyph glyph-name="egrave" unicode="&#xe8;" horiz-adv-x="1163" 
d="M59 1352h989v-285l-571 -1v-159l452 -1l-32 -275h-420v-353l588 68l84 -302l-1042 -131l-32 302l118 20v394h-124l28 257l98 1l-1 116l161 59l-296 -1v291zM681 1606l-84 -99l-292 234l140 109z" />
    <glyph glyph-name="eacute" unicode="&#xe9;" horiz-adv-x="1163" 
d="M59 1352h989v-285l-571 -1v-159l452 -1l-32 -275h-420v-353l588 68l84 -302l-1042 -131l-32 302l118 20v394h-124l28 257l98 1l-1 116l161 59l-296 -1v291zM713 1850l140 -109l-292 -234l-84 99z" />
    <glyph glyph-name="ecircumflex" unicode="&#xea;" horiz-adv-x="1163" 
d="M59 1352h989v-285l-571 -1v-159l452 -1l-32 -275h-420v-353l588 68l84 -302l-1042 -131l-32 302l118 20v394h-124l28 257l98 1l-1 116l161 59l-296 -1v291zM837 1606l-83 -99l-153 123l-153 -123l-84 99l236 244l1 -1l1 1z" />
    <glyph glyph-name="edieresis" unicode="&#xeb;" horiz-adv-x="1163" 
d="M59 1352h989v-285l-571 -1v-159l452 -1l-32 -275h-420v-353l588 68l84 -302l-1042 -131l-32 302l118 20v394h-124l28 257l98 1l-1 116l161 59l-296 -1v291zM556 1548l-124 -25l-125 227l234 46zM659 1796l238 -51l-132 -227l-117 29z" />
    <glyph glyph-name="igrave" unicode="&#xec;" horiz-adv-x="457" 
d="M386 1367l-1 -1366h-301l-1 1320zM342 1606l-84 -99l-292 234l140 109z" />
    <glyph glyph-name="iacute" unicode="&#xed;" horiz-adv-x="457" 
d="M385 1367l-1 -1366h-301l-1 1320zM384 1850l140 -109l-292 -234l-84 99z" />
    <glyph glyph-name="icircumflex" unicode="&#xee;" horiz-adv-x="457" 
d="M385 1367l-1 -1366h-301l-1 1320zM421.793 1606l-66.3994 -99l-122.398 123l-122.397 -123l-67.1992 99l188.797 244l0.799805 -1l0.800781 1z" />
    <glyph glyph-name="idieresis" unicode="&#xef;" horiz-adv-x="457" 
d="M385 1367l-1 -1366h-301l-1 1320zM191 1548l-124 -25l-125 227l234 46zM294 1796l238 -51l-132 -227l-117 29z" />
    <glyph glyph-name="eth" unicode="&#xf0;" 
 />
    <glyph glyph-name="ntilde" unicode="&#xf1;" horiz-adv-x="1205" 
d="M52 1357h290l-1 -216l34 84q191 -51 282.5 -114.5t189.5 -207.5l14 -40l-1 492h288v-1122q7 -77 -66.5 -163.5t-301.5 -74.5v283q100 8 84 129q1 68 -29.5 147.5t-190 212t-303.5 172.5v-944h-291zM308 1508l-75 136q116 260 344 132q245 -148 299 59l74 -137
q-126 -272 -359 -117q-216 133 -283 -73z" />
    <glyph glyph-name="ograve" unicode="&#xf2;" horiz-adv-x="1247" 
d="M342 1363v-131l78 131h660q122 -34 115 -344v-901q-24 -110 -187 -115h-763q-170 -7 -197 148v1151zM342 1068v-770h558v770h-558zM752 1606l-84 -99l-292 234l140 109z" />
    <glyph glyph-name="oacute" unicode="&#xf3;" horiz-adv-x="1247" 
d="M342 1363v-131l78 131h660q122 -34 115 -344v-901q-24 -110 -187 -115h-763q-170 -7 -197 148v1151zM342 1068v-770h558v770h-558zM802 1850l140 -109l-292 -234l-84 99z" />
    <glyph glyph-name="ocircumflex" unicode="&#xf4;" horiz-adv-x="1247" 
d="M342 1363v-131l78 131h660q122 -34 115 -344v-901q-24 -110 -187 -115h-763q-170 -7 -197 148v1151zM342 1068v-770h558v770h-558zM870 1606l-83 -99l-153 123l-153 -123l-84 99l236 244l1 -1l1 1z" />
    <glyph glyph-name="otilde" unicode="&#xf5;" horiz-adv-x="1247" 
d="M342 1363v-131l78 131h660q122 -34 115 -344v-901q-24 -110 -187 -115h-763q-170 -7 -197 148v1151zM342 1068v-770h558v770h-558zM362 1508l-75 136q116 260 344 132q245 -148 299 59l74 -137q-126 -272 -359 -117q-216 133 -283 -73z" />
    <glyph glyph-name="odieresis" unicode="&#xf6;" horiz-adv-x="1247" 
d="M342 1363v-131l78 131h660q122 -34 115 -344v-901q-24 -110 -187 -115h-763q-170 -7 -197 148v1151zM342 1068v-770h558v770h-558zM590 1548l-124 -25l-125 227l234 46zM693 1796l238 -51l-132 -227l-117 29z" />
    <glyph glyph-name="divide" unicode="&#xf7;" horiz-adv-x="1124" 
 />
    <glyph glyph-name="oslash" unicode="&#xf8;" horiz-adv-x="1251" 
 />
    <glyph glyph-name="ugrave" unicode="&#xf9;" horiz-adv-x="1243" 
d="M373 1376q-57 -526 -15.5 -705t132.5 -283t412 -50l-1 1024l290 -17v-1310l-290 -29v165l-52 -181l-63 -14q-281 -5 -424.5 79t-236.5 341t-76 742l17 185zM749 1606l-84 -99l-292 234l140 109z" />
    <glyph glyph-name="uacute" unicode="&#xfa;" horiz-adv-x="1243" 
d="M373 1376q-57 -526 -15.5 -705t132.5 -283t412 -50l-1 1024l290 -17v-1310l-290 -29v165l-52 -181l-63 -14q-281 -5 -424.5 79t-236.5 341t-76 742l17 185zM836 1850l140 -109l-292 -234l-84 99z" />
    <glyph glyph-name="ucircumflex" unicode="&#xfb;" horiz-adv-x="1243" 
d="M373 1376q-57 -526 -15.5 -705t132.5 -283t412 -50l-1 1024l290 -17v-1310l-290 -29v165l-52 -181l-63 -14q-281 -5 -424.5 79t-236.5 341t-76 742l17 185zM885 1606l-83 -99l-153 123l-153 -123l-84 99l236 244l1 -1l1 1z" />
    <glyph glyph-name="udieresis" unicode="&#xfc;" horiz-adv-x="1243" 
d="M373 1376q-57 -526 -15.5 -705t132.5 -283t412 -50l-1 1024l290 -17v-1310l-290 -29v165l-52 -181l-63 -14q-281 -5 -424.5 79t-236.5 341t-76 742l17 185zM607 1548l-124 -25l-125 227l234 46zM710 1796l238 -51l-132 -227l-117 29z" />
    <glyph glyph-name="yacute" unicode="&#xfd;" horiz-adv-x="1024" 
 />
    <glyph glyph-name="thorn" unicode="&#xfe;" 
 />
    <glyph glyph-name="ydieresis" unicode="&#xff;" horiz-adv-x="1024" 
 />
    <glyph glyph-name="Amacron" unicode="&#x100;" horiz-adv-x="1366" 
 />
    <glyph glyph-name="amacron" unicode="&#x101;" 
 />
    <glyph glyph-name="Abreve" unicode="&#x102;" horiz-adv-x="1366" 
 />
    <glyph glyph-name="abreve" unicode="&#x103;" 
 />
    <glyph glyph-name="Aogonek" unicode="&#x104;" horiz-adv-x="1366" 
 />
    <glyph glyph-name="aogonek" unicode="&#x105;" 
 />
    <glyph glyph-name="Cacute" unicode="&#x106;" horiz-adv-x="1479" 
 />
    <glyph glyph-name="cacute" unicode="&#x107;" horiz-adv-x="1024" 
 />
    <glyph glyph-name="Ccircumflex" unicode="&#x108;" horiz-adv-x="1479" 
 />
    <glyph glyph-name="ccircumflex" unicode="&#x109;" horiz-adv-x="1024" 
 />
    <glyph glyph-name="Cdot" unicode="&#x10a;" horiz-adv-x="1479" 
 />
    <glyph glyph-name="cdot" unicode="&#x10b;" horiz-adv-x="1024" 
 />
    <glyph glyph-name="Ccaron" unicode="&#x10c;" horiz-adv-x="1479" 
 />
    <glyph glyph-name="ccaron" unicode="&#x10d;" horiz-adv-x="1024" 
 />
    <glyph glyph-name="Dcaron" unicode="&#x10e;" horiz-adv-x="1479" 
 />
    <glyph glyph-name="dcaron" unicode="&#x10f;" horiz-adv-x="1259" 
 />
    <glyph glyph-name="Dslash" unicode="&#x110;" horiz-adv-x="1479" 
 />
    <glyph glyph-name="dmacron" unicode="&#x111;" 
 />
    <glyph glyph-name="Emacron" unicode="&#x112;" horiz-adv-x="1366" 
 />
    <glyph glyph-name="emacron" unicode="&#x113;" 
 />
    <glyph glyph-name="Ebreve" unicode="&#x114;" horiz-adv-x="1366" 
 />
    <glyph glyph-name="ebreve" unicode="&#x115;" 
 />
    <glyph glyph-name="Edot" unicode="&#x116;" horiz-adv-x="1366" 
 />
    <glyph glyph-name="edot" unicode="&#x117;" 
 />
    <glyph glyph-name="Eogonek" unicode="&#x118;" horiz-adv-x="1366" 
 />
    <glyph glyph-name="eogonek" unicode="&#x119;" 
 />
    <glyph glyph-name="Ecaron" unicode="&#x11a;" horiz-adv-x="1366" 
 />
    <glyph glyph-name="ecaron" unicode="&#x11b;" 
 />
    <glyph glyph-name="Gcircumflex" unicode="&#x11c;" horiz-adv-x="1593" 
 />
    <glyph glyph-name="gcircumflex" unicode="&#x11d;" 
 />
    <glyph glyph-name="Gbreve" unicode="&#x11e;" horiz-adv-x="1593" 
 />
    <glyph glyph-name="gbreve" unicode="&#x11f;" 
 />
    <glyph glyph-name="Gdot" unicode="&#x120;" horiz-adv-x="1593" 
 />
    <glyph glyph-name="gdot" unicode="&#x121;" 
 />
    <glyph glyph-name="Gcedilla" unicode="&#x122;" horiz-adv-x="1593" 
 />
    <glyph glyph-name="gcedilla" unicode="&#x123;" 
 />
    <glyph glyph-name="Hcircumflex" unicode="&#x124;" horiz-adv-x="1479" 
 />
    <glyph glyph-name="hcircumflex" unicode="&#x125;" 
 />
    <glyph glyph-name="Hbar" unicode="&#x126;" horiz-adv-x="1479" 
 />
    <glyph glyph-name="hbar" unicode="&#x127;" 
 />
    <glyph glyph-name="Itilde" unicode="&#x128;" horiz-adv-x="569" 
 />
    <glyph glyph-name="itilde" unicode="&#x129;" horiz-adv-x="569" 
 />
    <glyph glyph-name="Imacron" unicode="&#x12a;" horiz-adv-x="569" 
 />
    <glyph glyph-name="imacron" unicode="&#x12b;" horiz-adv-x="569" 
 />
    <glyph glyph-name="Ibreve" unicode="&#x12c;" horiz-adv-x="569" 
 />
    <glyph glyph-name="ibreve" unicode="&#x12d;" horiz-adv-x="569" 
 />
    <glyph glyph-name="Iogonek" unicode="&#x12e;" horiz-adv-x="569" 
 />
    <glyph glyph-name="iogonek" unicode="&#x12f;" horiz-adv-x="455" 
 />
    <glyph glyph-name="Idotaccent" unicode="&#x130;" horiz-adv-x="569" 
 />
    <glyph glyph-name="dotlessi" unicode="&#x131;" horiz-adv-x="457" 
d="M385 1367l-1 -1366h-301l-1 1320z" />
    <glyph glyph-name="IJ" unicode="&#x132;" horiz-adv-x="1505" 
 />
    <glyph glyph-name="ij" unicode="&#x133;" horiz-adv-x="909" 
 />
    <glyph glyph-name="Jcircumflex" unicode="&#x134;" horiz-adv-x="1024" 
 />
    <glyph glyph-name="jcircumflex" unicode="&#x135;" horiz-adv-x="455" 
 />
    <glyph glyph-name="Kcedilla" unicode="&#x136;" horiz-adv-x="1366" 
 />
    <glyph glyph-name="kcedilla" unicode="&#x137;" horiz-adv-x="1024" 
 />
    <glyph glyph-name="kgreenlandic" unicode="&#x138;" horiz-adv-x="1024" 
 />
    <glyph glyph-name="Lacute" unicode="&#x139;" 
 />
    <glyph glyph-name="lacute" unicode="&#x13a;" horiz-adv-x="455" 
 />
    <glyph glyph-name="Lcedilla" unicode="&#x13b;" 
 />
    <glyph glyph-name="lcedilla" unicode="&#x13c;" horiz-adv-x="455" 
 />
    <glyph glyph-name="Lcaron" unicode="&#x13d;" 
 />
    <glyph glyph-name="lcaron" unicode="&#x13e;" horiz-adv-x="597" 
 />
    <glyph glyph-name="Ldot" unicode="&#x13f;" 
 />
    <glyph glyph-name="ldot" unicode="&#x140;" horiz-adv-x="684" 
 />
    <glyph glyph-name="Lslash" unicode="&#x141;" 
 />
    <glyph glyph-name="lslash" unicode="&#x142;" horiz-adv-x="455" 
 />
    <glyph glyph-name="Nacute" unicode="&#x143;" horiz-adv-x="1479" 
 />
    <glyph glyph-name="nacute" unicode="&#x144;" 
 />
    <glyph glyph-name="Ncedilla" unicode="&#x145;" horiz-adv-x="1479" 
 />
    <glyph glyph-name="ncedilla" unicode="&#x146;" 
 />
    <glyph glyph-name="Ncaron" unicode="&#x147;" horiz-adv-x="1479" 
 />
    <glyph glyph-name="ncaron" unicode="&#x148;" 
 />
    <glyph glyph-name="napostrophe" unicode="&#x149;" horiz-adv-x="1237" 
 />
    <glyph glyph-name="Eng" unicode="&#x14a;" horiz-adv-x="1481" 
 />
    <glyph glyph-name="eng" unicode="&#x14b;" 
 />
    <glyph glyph-name="Omacron" unicode="&#x14c;" horiz-adv-x="1593" 
 />
    <glyph glyph-name="omacron" unicode="&#x14d;" 
 />
    <glyph glyph-name="Obreve" unicode="&#x14e;" horiz-adv-x="1593" 
 />
    <glyph glyph-name="obreve" unicode="&#x14f;" 
 />
    <glyph glyph-name="Odblacute" unicode="&#x150;" horiz-adv-x="1593" 
 />
    <glyph glyph-name="odblacute" unicode="&#x151;" 
 />
    <glyph glyph-name="OE" unicode="&#x152;" horiz-adv-x="1400" 
d="M340 1068v-770h287v770h-287zM813 120q12 -114 -121 -117h-449q-170 -5 -197 148v1151l294 61v-131l78 131h389q1 0 2 -1l545 1l-80 -302l-342 -3v-149l389 1l-48 -272h-348q-2 -29 -3 -55v-94q4 -95 30 -136q41 -70 138 -71l222 1l-49 -283l-257 2q-138 14 -193 118z
" />
    <glyph glyph-name="oe" unicode="&#x153;" horiz-adv-x="1400" 
d="M340 1068v-770h287v770h-287zM813 120q12 -114 -121 -117h-449q-170 -5 -197 148v1151l294 61v-131l78 131h389q1 0 2 -1l545 1l-80 -302l-342 -3v-149l389 1l-48 -272h-348q-2 -29 -3 -55v-94q4 -95 30 -136q41 -70 138 -71l222 1l-49 -283l-257 2q-138 14 -193 118z
" />
    <glyph glyph-name="Racute" unicode="&#x154;" horiz-adv-x="1479" 
 />
    <glyph glyph-name="racute" unicode="&#x155;" horiz-adv-x="682" 
 />
    <glyph glyph-name="Rcedilla" unicode="&#x156;" horiz-adv-x="1479" 
 />
    <glyph glyph-name="rcedilla" unicode="&#x157;" horiz-adv-x="682" 
 />
    <glyph glyph-name="Rcaron" unicode="&#x158;" horiz-adv-x="1479" 
 />
    <glyph glyph-name="rcaron" unicode="&#x159;" horiz-adv-x="682" 
 />
    <glyph glyph-name="Sacute" unicode="&#x15a;" horiz-adv-x="1366" 
 />
    <glyph glyph-name="sacute" unicode="&#x15b;" horiz-adv-x="1024" 
 />
    <glyph glyph-name="Scircumflex" unicode="&#x15c;" horiz-adv-x="1366" 
 />
    <glyph glyph-name="scircumflex" unicode="&#x15d;" horiz-adv-x="1024" 
 />
    <glyph glyph-name="Scedilla" unicode="&#x15e;" horiz-adv-x="1366" 
 />
    <glyph glyph-name="scedilla" unicode="&#x15f;" horiz-adv-x="1024" 
 />
    <glyph glyph-name="Scaron" unicode="&#x160;" horiz-adv-x="1366" 
 />
    <glyph glyph-name="scaron" unicode="&#x161;" horiz-adv-x="1024" 
 />
    <glyph glyph-name="Tcedilla" unicode="&#x162;" horiz-adv-x="1251" 
 />
    <glyph glyph-name="tcedilla" unicode="&#x163;" horiz-adv-x="569" 
 />
    <glyph glyph-name="Tcaron" unicode="&#x164;" horiz-adv-x="1251" 
 />
    <glyph glyph-name="tcaron" unicode="&#x165;" horiz-adv-x="768" 
 />
    <glyph glyph-name="Tbar" unicode="&#x166;" horiz-adv-x="1251" 
 />
    <glyph glyph-name="tbar" unicode="&#x167;" horiz-adv-x="569" 
 />
    <glyph glyph-name="Utilde" unicode="&#x168;" horiz-adv-x="1479" 
 />
    <glyph glyph-name="utilde" unicode="&#x169;" 
 />
    <glyph glyph-name="Umacron" unicode="&#x16a;" horiz-adv-x="1479" 
 />
    <glyph glyph-name="umacron" unicode="&#x16b;" 
 />
    <glyph glyph-name="Ubreve" unicode="&#x16c;" horiz-adv-x="1479" 
 />
    <glyph glyph-name="ubreve" unicode="&#x16d;" 
 />
    <glyph glyph-name="Uring" unicode="&#x16e;" horiz-adv-x="1479" 
 />
    <glyph glyph-name="uring" unicode="&#x16f;" 
 />
    <glyph glyph-name="Udblacute" unicode="&#x170;" horiz-adv-x="1479" 
 />
    <glyph glyph-name="udblacute" unicode="&#x171;" 
 />
    <glyph glyph-name="Uogonek" unicode="&#x172;" horiz-adv-x="1479" 
 />
    <glyph glyph-name="uogonek" unicode="&#x173;" 
 />
    <glyph glyph-name="Wcircumflex" unicode="&#x174;" horiz-adv-x="1933" 
 />
    <glyph glyph-name="wcircumflex" unicode="&#x175;" horiz-adv-x="1479" 
 />
    <glyph glyph-name="Ycircumflex" unicode="&#x176;" horiz-adv-x="1366" 
 />
    <glyph glyph-name="ycircumflex" unicode="&#x177;" horiz-adv-x="1024" 
 />
    <glyph glyph-name="Ydieresis" unicode="&#x178;" horiz-adv-x="1366" 
 />
    <glyph glyph-name="Zacute" unicode="&#x179;" horiz-adv-x="1251" 
 />
    <glyph glyph-name="zacute" unicode="&#x17a;" horiz-adv-x="1024" 
 />
    <glyph glyph-name="Zdot" unicode="&#x17b;" horiz-adv-x="1251" 
 />
    <glyph glyph-name="zdot" unicode="&#x17c;" horiz-adv-x="1024" 
 />
    <glyph glyph-name="Zcaron" unicode="&#x17d;" horiz-adv-x="1251" 
 />
    <glyph glyph-name="zcaron" unicode="&#x17e;" horiz-adv-x="1024" 
 />
    <glyph glyph-name="longs" unicode="&#x17f;" horiz-adv-x="455" 
 />
    <glyph glyph-name="florin" unicode="&#x192;" 
 />
    <glyph glyph-name="Aringacute" unicode="&#x1fa;" horiz-adv-x="1366" 
 />
    <glyph glyph-name="aringacute" unicode="&#x1fb;" 
 />
    <glyph glyph-name="AEacute" unicode="&#x1fc;" horiz-adv-x="2048" 
 />
    <glyph glyph-name="aeacute" unicode="&#x1fd;" horiz-adv-x="1821" 
 />
    <glyph glyph-name="Oslashacute" unicode="&#x1fe;" horiz-adv-x="1593" 
 />
    <glyph glyph-name="oslashacute" unicode="&#x1ff;" horiz-adv-x="1251" 
 />
    <glyph glyph-name="circumflex" unicode="&#x2c6;" horiz-adv-x="702" 
d="M601 1606l-83 -99l-153 123l-153 -123l-84 99l236 244l1 -1l1 1z" />
    <glyph glyph-name="caron" unicode="&#x2c7;" horiz-adv-x="682" 
 />
    <glyph glyph-name="macron" unicode="&#x2c9;" horiz-adv-x="682" 
 />
    <glyph glyph-name="breve" unicode="&#x2d8;" horiz-adv-x="682" 
 />
    <glyph glyph-name="dotaccent" unicode="&#x2d9;" horiz-adv-x="682" 
 />
    <glyph glyph-name="ring" unicode="&#x2da;" horiz-adv-x="682" 
 />
    <glyph glyph-name="ogonek" unicode="&#x2db;" horiz-adv-x="682" 
 />
    <glyph glyph-name="tilde" unicode="&#x2dc;" horiz-adv-x="731" 
d="M77 1508l-75 136q116 260 344 132q245 -148 299 59l74 -137q-126 -272 -359 -117q-216 133 -283 -73z" />
    <glyph glyph-name="hungarumlaut" unicode="&#x2dd;" horiz-adv-x="682" 
 />
    <glyph glyph-name="tonos" unicode="&#x384;" horiz-adv-x="682" 
 />
    <glyph glyph-name="dieresistonos" unicode="&#x385;" horiz-adv-x="682" 
 />
    <glyph glyph-name="Alphatonos" unicode="&#x386;" horiz-adv-x="1367" 
 />
    <glyph glyph-name="anoteleia" unicode="&#x387;" horiz-adv-x="569" 
 />
    <glyph glyph-name="Epsilontonos" unicode="&#x388;" horiz-adv-x="1606" 
 />
    <glyph glyph-name="Etatonos" unicode="&#x389;" horiz-adv-x="1716" 
 />
    <glyph glyph-name="Iotatonos" unicode="&#x38a;" horiz-adv-x="786" 
 />
    <glyph glyph-name="Omicrontonos" unicode="&#x38c;" horiz-adv-x="1586" 
 />
    <glyph glyph-name="Upsilontonos" unicode="&#x38e;" horiz-adv-x="1752" 
 />
    <glyph glyph-name="Omegatonos" unicode="&#x38f;" horiz-adv-x="1541" 
 />
    <glyph glyph-name="iotadieresistonos" unicode="&#x390;" horiz-adv-x="455" 
 />
    <glyph glyph-name="Alpha" unicode="&#x391;" horiz-adv-x="1366" 
 />
    <glyph glyph-name="Beta" unicode="&#x392;" horiz-adv-x="1366" 
 />
    <glyph glyph-name="Gamma" unicode="&#x393;" horiz-adv-x="1128" 
 />
    <glyph glyph-name="Delta" unicode="&#x394;" horiz-adv-x="1368" 
 />
    <glyph glyph-name="Epsilon" unicode="&#x395;" horiz-adv-x="1366" 
 />
    <glyph glyph-name="Zeta" unicode="&#x396;" horiz-adv-x="1251" 
 />
    <glyph glyph-name="Eta" unicode="&#x397;" horiz-adv-x="1479" 
 />
    <glyph glyph-name="Theta" unicode="&#x398;" horiz-adv-x="1593" 
 />
    <glyph glyph-name="Iota" unicode="&#x399;" horiz-adv-x="569" 
 />
    <glyph glyph-name="Kappa" unicode="&#x39a;" horiz-adv-x="1366" 
 />
    <glyph glyph-name="Lambda" unicode="&#x39b;" horiz-adv-x="1368" 
 />
    <glyph glyph-name="Mu" unicode="&#x39c;" horiz-adv-x="1706" 
 />
    <glyph glyph-name="Nu" unicode="&#x39d;" horiz-adv-x="1479" 
 />
    <glyph glyph-name="Xi" unicode="&#x39e;" horiz-adv-x="1331" 
 />
    <glyph glyph-name="Omicron" unicode="&#x39f;" horiz-adv-x="1593" 
 />
    <glyph glyph-name="Pi" unicode="&#x3a0;" horiz-adv-x="1479" 
 />
    <glyph glyph-name="Rho" unicode="&#x3a1;" horiz-adv-x="1366" 
 />
    <glyph glyph-name="Sigma" unicode="&#x3a3;" horiz-adv-x="1266" 
 />
    <glyph glyph-name="Tau" unicode="&#x3a4;" horiz-adv-x="1251" 
 />
    <glyph glyph-name="Upsilon" unicode="&#x3a5;" horiz-adv-x="1366" 
 />
    <glyph glyph-name="Phi" unicode="&#x3a6;" horiz-adv-x="1634" 
 />
    <glyph glyph-name="Chi" unicode="&#x3a7;" horiz-adv-x="1366" 
 />
    <glyph glyph-name="Psi" unicode="&#x3a8;" horiz-adv-x="1711" 
 />
    <glyph glyph-name="Omega" unicode="&#x3a9;" horiz-adv-x="1531" 
 />
    <glyph glyph-name="Iotadieresis" unicode="&#x3aa;" horiz-adv-x="569" 
 />
    <glyph glyph-name="Upsilondieresis" unicode="&#x3ab;" horiz-adv-x="1366" 
 />
    <glyph glyph-name="alphatonos" unicode="&#x3ac;" horiz-adv-x="1184" 
 />
    <glyph glyph-name="epsilontonos" unicode="&#x3ad;" horiz-adv-x="913" 
 />
    <glyph glyph-name="etatonos" unicode="&#x3ae;" 
 />
    <glyph glyph-name="iotatonos" unicode="&#x3af;" horiz-adv-x="455" 
 />
    <glyph glyph-name="upsilondieresistonos" unicode="&#x3b0;" horiz-adv-x="1120" 
 />
    <glyph glyph-name="alpha" unicode="&#x3b1;" horiz-adv-x="1184" 
 />
    <glyph glyph-name="beta" unicode="&#x3b2;" horiz-adv-x="1178" 
 />
    <glyph glyph-name="gamma" unicode="&#x3b3;" horiz-adv-x="1024" 
 />
    <glyph glyph-name="delta" unicode="&#x3b4;" horiz-adv-x="1140" 
 />
    <glyph glyph-name="epsilon" unicode="&#x3b5;" horiz-adv-x="913" 
 />
    <glyph glyph-name="zeta" unicode="&#x3b6;" horiz-adv-x="903" 
 />
    <glyph glyph-name="eta" unicode="&#x3b7;" 
 />
    <glyph glyph-name="theta" unicode="&#x3b8;" 
 />
    <glyph glyph-name="iota" unicode="&#x3b9;" horiz-adv-x="455" 
 />
    <glyph glyph-name="kappa" unicode="&#x3ba;" horiz-adv-x="1024" 
 />
    <glyph glyph-name="lambda" unicode="&#x3bb;" horiz-adv-x="1024" 
 />
    <glyph glyph-name="mu" unicode="&#x3bc;" horiz-adv-x="1180" 
 />
    <glyph glyph-name="nu" unicode="&#x3bd;" horiz-adv-x="1024" 
 />
    <glyph glyph-name="xi" unicode="&#x3be;" horiz-adv-x="917" 
 />
    <glyph glyph-name="omicron" unicode="&#x3bf;" 
 />
    <glyph glyph-name="pi" unicode="&#x3c0;" horiz-adv-x="1413" 
 />
    <glyph glyph-name="rho" unicode="&#x3c1;" horiz-adv-x="1165" 
 />
    <glyph glyph-name="sigma1" unicode="&#x3c2;" horiz-adv-x="987" 
 />
    <glyph glyph-name="sigma" unicode="&#x3c3;" horiz-adv-x="1264" 
 />
    <glyph glyph-name="tau" unicode="&#x3c4;" horiz-adv-x="809" 
 />
    <glyph glyph-name="upsilon" unicode="&#x3c5;" horiz-adv-x="1120" 
 />
    <glyph glyph-name="phi" unicode="&#x3c6;" horiz-adv-x="1328" 
 />
    <glyph glyph-name="chi" unicode="&#x3c7;" horiz-adv-x="1075" 
 />
    <glyph glyph-name="psi" unicode="&#x3c8;" horiz-adv-x="1460" 
 />
    <glyph glyph-name="omega" unicode="&#x3c9;" horiz-adv-x="1599" 
 />
    <glyph glyph-name="iotadieresis" unicode="&#x3ca;" horiz-adv-x="455" 
 />
    <glyph glyph-name="upsilondieresis" unicode="&#x3cb;" horiz-adv-x="1120" 
 />
    <glyph glyph-name="omicrontonos" unicode="&#x3cc;" 
 />
    <glyph glyph-name="upsilontonos" unicode="&#x3cd;" horiz-adv-x="1120" 
 />
    <glyph glyph-name="omegatonos" unicode="&#x3ce;" horiz-adv-x="1599" 
 />
    <glyph glyph-name="afii10023" unicode="&#x401;" horiz-adv-x="1367" 
 />
    <glyph glyph-name="afii10051" unicode="&#x402;" horiz-adv-x="1771" 
 />
    <glyph glyph-name="afii10052" unicode="&#x403;" horiz-adv-x="1109" 
 />
    <glyph glyph-name="afii10053" unicode="&#x404;" horiz-adv-x="1472" 
 />
    <glyph glyph-name="afii10054" unicode="&#x405;" horiz-adv-x="1366" 
 />
    <glyph glyph-name="afii10055" unicode="&#x406;" horiz-adv-x="569" 
 />
    <glyph glyph-name="afii10056" unicode="&#x407;" horiz-adv-x="569" 
 />
    <glyph glyph-name="afii10057" unicode="&#x408;" horiz-adv-x="1024" 
 />
    <glyph glyph-name="afii10058" unicode="&#x409;" horiz-adv-x="2165" 
 />
    <glyph glyph-name="afii10059" unicode="&#x40a;" horiz-adv-x="2069" 
 />
    <glyph glyph-name="afii10060" unicode="&#x40b;" horiz-adv-x="1749" 
 />
    <glyph glyph-name="afii10061" unicode="&#x40c;" horiz-adv-x="1193" 
 />
    <glyph glyph-name="afii10062" unicode="&#x40e;" horiz-adv-x="1301" 
 />
    <glyph glyph-name="afii10145" unicode="&#x40f;" horiz-adv-x="1472" 
 />
    <glyph glyph-name="afii10017" unicode="&#x410;" horiz-adv-x="1366" 
 />
    <glyph glyph-name="afii10018" unicode="&#x411;" horiz-adv-x="1344" 
 />
    <glyph glyph-name="afii10019" unicode="&#x412;" horiz-adv-x="1366" 
 />
    <glyph glyph-name="afii10020" unicode="&#x413;" horiz-adv-x="1109" 
 />
    <glyph glyph-name="afii10021" unicode="&#x414;" horiz-adv-x="1387" 
 />
    <glyph glyph-name="afii10022" unicode="&#x415;" horiz-adv-x="1366" 
 />
    <glyph glyph-name="afii10024" unicode="&#x416;" horiz-adv-x="1891" 
 />
    <glyph glyph-name="afii10025" unicode="&#x417;" horiz-adv-x="1237" 
 />
    <glyph glyph-name="afii10026" unicode="&#x418;" horiz-adv-x="1472" 
 />
    <glyph glyph-name="afii10027" unicode="&#x419;" horiz-adv-x="1472" 
 />
    <glyph glyph-name="afii10028" unicode="&#x41a;" horiz-adv-x="1193" 
 />
    <glyph glyph-name="afii10029" unicode="&#x41b;" horiz-adv-x="1344" 
 />
    <glyph glyph-name="afii10030" unicode="&#x41c;" horiz-adv-x="1706" 
 />
    <glyph glyph-name="afii10031" unicode="&#x41d;" horiz-adv-x="1479" 
 />
    <glyph glyph-name="afii10032" unicode="&#x41e;" horiz-adv-x="1593" 
 />
    <glyph glyph-name="afii10033" unicode="&#x41f;" horiz-adv-x="1472" 
 />
    <glyph glyph-name="afii10034" unicode="&#x420;" horiz-adv-x="1366" 
 />
    <glyph glyph-name="afii10035" unicode="&#x421;" horiz-adv-x="1479" 
 />
    <glyph glyph-name="afii10036" unicode="&#x422;" horiz-adv-x="1251" 
 />
    <glyph glyph-name="afii10037" unicode="&#x423;" horiz-adv-x="1301" 
 />
    <glyph glyph-name="afii10038" unicode="&#x424;" horiz-adv-x="1557" 
 />
    <glyph glyph-name="afii10039" unicode="&#x425;" horiz-adv-x="1366" 
 />
    <glyph glyph-name="afii10040" unicode="&#x426;" horiz-adv-x="1515" 
 />
    <glyph glyph-name="afii10041" unicode="&#x427;" horiz-adv-x="1365" 
 />
    <glyph glyph-name="afii10042" unicode="&#x428;" horiz-adv-x="1877" 
 />
    <glyph glyph-name="afii10043" unicode="&#x429;" horiz-adv-x="1920" 
 />
    <glyph glyph-name="afii10044" unicode="&#x42a;" horiz-adv-x="1621" 
 />
    <glyph glyph-name="afii10045" unicode="&#x42b;" horiz-adv-x="1813" 
 />
    <glyph glyph-name="afii10046" unicode="&#x42c;" horiz-adv-x="1344" 
 />
    <glyph glyph-name="afii10047" unicode="&#x42d;" horiz-adv-x="1472" 
 />
    <glyph glyph-name="afii10048" unicode="&#x42e;" horiz-adv-x="2069" 
 />
    <glyph glyph-name="afii10049" unicode="&#x42f;" horiz-adv-x="1479" 
 />
    <glyph glyph-name="afii10065" unicode="&#x430;" 
 />
    <glyph glyph-name="afii10066" unicode="&#x431;" horiz-adv-x="1173" 
 />
    <glyph glyph-name="afii10067" unicode="&#x432;" horiz-adv-x="1088" 
 />
    <glyph glyph-name="afii10068" unicode="&#x433;" horiz-adv-x="747" 
 />
    <glyph glyph-name="afii10069" unicode="&#x434;" horiz-adv-x="1195" 
 />
    <glyph glyph-name="afii10070" unicode="&#x435;" 
 />
    <glyph glyph-name="afii10072" unicode="&#x436;" horiz-adv-x="1370" 
 />
    <glyph glyph-name="afii10073" unicode="&#x437;" horiz-adv-x="939" 
 />
    <glyph glyph-name="afii10074" unicode="&#x438;" horiz-adv-x="1144" 
 />
    <glyph glyph-name="afii10075" unicode="&#x439;" horiz-adv-x="1144" 
 />
    <glyph glyph-name="afii10076" unicode="&#x43a;" horiz-adv-x="896" 
 />
    <glyph glyph-name="afii10077" unicode="&#x43b;" horiz-adv-x="1195" 
 />
    <glyph glyph-name="afii10078" unicode="&#x43c;" horiz-adv-x="1408" 
 />
    <glyph glyph-name="afii10079" unicode="&#x43d;" horiz-adv-x="1131" 
 />
    <glyph glyph-name="afii10080" unicode="&#x43e;" 
 />
    <glyph glyph-name="afii10081" unicode="&#x43f;" horiz-adv-x="1109" 
 />
    <glyph glyph-name="afii10082" unicode="&#x440;" 
 />
    <glyph glyph-name="afii10083" unicode="&#x441;" horiz-adv-x="1024" 
 />
    <glyph glyph-name="afii10084" unicode="&#x442;" horiz-adv-x="938" 
 />
    <glyph glyph-name="afii10085" unicode="&#x443;" horiz-adv-x="1024" 
 />
    <glyph glyph-name="afii10086" unicode="&#x444;" horiz-adv-x="1685" 
 />
    <glyph glyph-name="afii10087" unicode="&#x445;" horiz-adv-x="1024" 
 />
    <glyph glyph-name="afii10088" unicode="&#x446;" horiz-adv-x="1173" 
 />
    <glyph glyph-name="afii10089" unicode="&#x447;" horiz-adv-x="1067" 
 />
    <glyph glyph-name="afii10090" unicode="&#x448;" horiz-adv-x="1643" 
 />
    <glyph glyph-name="afii10091" unicode="&#x449;" horiz-adv-x="1685" 
 />
    <glyph glyph-name="afii10092" unicode="&#x44a;" horiz-adv-x="1280" 
 />
    <glyph glyph-name="afii10093" unicode="&#x44b;" horiz-adv-x="1472" 
 />
    <glyph glyph-name="afii10094" unicode="&#x44c;" horiz-adv-x="1067" 
 />
    <glyph glyph-name="afii10095" unicode="&#x44d;" horiz-adv-x="1045" 
 />
    <glyph glyph-name="afii10096" unicode="&#x44e;" horiz-adv-x="1536" 
 />
    <glyph glyph-name="afii10097" unicode="&#x44f;" horiz-adv-x="1109" 
 />
    <glyph glyph-name="afii10071" unicode="&#x451;" 
 />
    <glyph glyph-name="afii10099" unicode="&#x452;" 
 />
    <glyph glyph-name="afii10100" unicode="&#x453;" horiz-adv-x="747" 
 />
    <glyph glyph-name="afii10101" unicode="&#x454;" horiz-adv-x="1045" 
 />
    <glyph glyph-name="afii10102" unicode="&#x455;" horiz-adv-x="1024" 
 />
    <glyph glyph-name="afii10103" unicode="&#x456;" horiz-adv-x="455" 
 />
    <glyph glyph-name="afii10104" unicode="&#x457;" horiz-adv-x="569" 
 />
    <glyph glyph-name="afii10105" unicode="&#x458;" horiz-adv-x="455" 
 />
    <glyph glyph-name="afii10106" unicode="&#x459;" horiz-adv-x="1856" 
 />
    <glyph glyph-name="afii10107" unicode="&#x45a;" horiz-adv-x="1664" 
 />
    <glyph glyph-name="afii10108" unicode="&#x45b;" 
 />
    <glyph glyph-name="afii10109" unicode="&#x45c;" horiz-adv-x="896" 
 />
    <glyph glyph-name="afii10110" unicode="&#x45e;" horiz-adv-x="1024" 
 />
    <glyph glyph-name="afii10193" unicode="&#x45f;" horiz-adv-x="1131" 
 />
    <glyph glyph-name="afii10050" unicode="&#x490;" horiz-adv-x="1001" 
 />
    <glyph glyph-name="afii10098" unicode="&#x491;" horiz-adv-x="842" 
 />
    <glyph glyph-name="Wgrave" unicode="&#x1e80;" horiz-adv-x="1933" 
 />
    <glyph glyph-name="wgrave" unicode="&#x1e81;" horiz-adv-x="1479" 
 />
    <glyph glyph-name="Wacute" unicode="&#x1e82;" horiz-adv-x="1933" 
 />
    <glyph glyph-name="wacute" unicode="&#x1e83;" horiz-adv-x="1479" 
 />
    <glyph glyph-name="Wdieresis" unicode="&#x1e84;" horiz-adv-x="1933" 
 />
    <glyph glyph-name="wdieresis" unicode="&#x1e85;" horiz-adv-x="1479" 
 />
    <glyph glyph-name="Ygrave" unicode="&#x1ef2;" horiz-adv-x="1366" 
 />
    <glyph glyph-name="ygrave" unicode="&#x1ef3;" horiz-adv-x="1024" 
 />
    <glyph glyph-name="endash" unicode="&#x2013;" 
 />
    <glyph glyph-name="emdash" unicode="&#x2014;" horiz-adv-x="2048" 
 />
    <glyph glyph-name="afii00208" unicode="&#x2015;" horiz-adv-x="2048" 
 />
    <glyph glyph-name="underscoredbl" unicode="&#x2017;" horiz-adv-x="1131" 
 />
    <glyph glyph-name="quoteleft" unicode="&#x2018;" horiz-adv-x="353" 
d="M69 1399h211v-407h-211v407z" />
    <glyph glyph-name="quoteright" unicode="&#x2019;" horiz-adv-x="353" 
d="M69 1399h211v-407h-211v407z" />
    <glyph glyph-name="quotesinglbase" unicode="&#x201a;" horiz-adv-x="455" 
 />
    <glyph glyph-name="quotereversed" unicode="&#x201b;" horiz-adv-x="455" 
 />
    <glyph glyph-name="quotedblleft" unicode="&#x201c;" horiz-adv-x="598" 
d="M69 1399h211v-407h-211v407zM341 1399h195v-407h-195v407z" />
    <glyph glyph-name="quotedblright" unicode="&#x201d;" horiz-adv-x="598" 
d="M69 1399h211v-407h-211v407zM341 1399h195v-407h-195v407z" />
    <glyph glyph-name="quotedblbase" unicode="&#x201e;" horiz-adv-x="682" 
 />
    <glyph glyph-name="dagger" unicode="&#x2020;" 
 />
    <glyph glyph-name="daggerdbl" unicode="&#x2021;" 
 />
    <glyph glyph-name="bullet" unicode="&#x2022;" horiz-adv-x="717" 
 />
    <glyph glyph-name="ellipsis" unicode="&#x2026;" horiz-adv-x="2048" 
 />
    <glyph glyph-name="perthousand" unicode="&#x2030;" horiz-adv-x="2048" 
 />
    <glyph glyph-name="minute" unicode="&#x2032;" horiz-adv-x="384" 
 />
    <glyph glyph-name="second" unicode="&#x2033;" horiz-adv-x="725" 
 />
    <glyph glyph-name="guilsinglleft" unicode="&#x2039;" horiz-adv-x="682" 
 />
    <glyph glyph-name="guilsinglright" unicode="&#x203a;" horiz-adv-x="682" 
 />
    <glyph glyph-name="exclamdbl" unicode="&#x203c;" horiz-adv-x="1024" 
 />
    <glyph glyph-name="radicalex" unicode="&#x203e;" horiz-adv-x="682" 
 />
    <glyph glyph-name="fraction" unicode="&#x2044;" horiz-adv-x="342" 
 />
    <glyph glyph-name="fraction" unicode="&#x2215;" horiz-adv-x="342" 
 />
    <glyph glyph-name="nsuperior" unicode="&#x207f;" horiz-adv-x="747" 
 />
    <glyph glyph-name="franc" unicode="&#x20a3;" 
 />
    <glyph glyph-name="afii08941" unicode="&#x20a4;" 
 />
    <glyph glyph-name="peseta" unicode="&#x20a7;" horiz-adv-x="2240" 
 />
    <glyph glyph-name="Euro" unicode="&#x20ac;" horiz-adv-x="1158" 
d="M197 903q48 139 159 251q196 197 477 197q120 0 224 -35v-287q-98 64 -224 64q-173 0 -294 -121q-33 -33 -57 -69h571v-146h-629q-7 -38 -7 -79q0 -16 1 -31h635v-148h-597q30 -63 83 -115q121 -122 294 -122q125 0 224 65v-289q-104 -36 -224 -36q-278 0 -475 198
q-132 131 -176 299h-103v148h82q-1 14 -1 28q0 42 4 82h-85v146h118z" />
    <glyph glyph-name="afii61248" unicode="&#x2105;" horiz-adv-x="1813" 
 />
    <glyph glyph-name="afii61289" unicode="&#x2113;" horiz-adv-x="662" 
 />
    <glyph glyph-name="afii61352" unicode="&#x2116;" horiz-adv-x="2197" 
 />
    <glyph glyph-name="trademark" unicode="&#x2122;" horiz-adv-x="2048" 
 />
    <glyph glyph-name="Ohm" unicode="&#x2126;" horiz-adv-x="1573" 
 />
    <glyph glyph-name="estimated" unicode="&#x212e;" horiz-adv-x="1229" 
 />
    <glyph glyph-name="oneeighth" unicode="&#x215b;" horiz-adv-x="1708" 
 />
    <glyph glyph-name="threeeighths" unicode="&#x215c;" horiz-adv-x="1708" 
 />
    <glyph glyph-name="fiveeighths" unicode="&#x215d;" horiz-adv-x="1708" 
 />
    <glyph glyph-name="seveneighths" unicode="&#x215e;" horiz-adv-x="1708" 
 />
    <glyph glyph-name="arrowleft" unicode="&#x2190;" horiz-adv-x="2048" 
 />
    <glyph glyph-name="arrowup" unicode="&#x2191;" horiz-adv-x="1024" 
 />
    <glyph glyph-name="arrowright" unicode="&#x2192;" horiz-adv-x="2048" 
 />
    <glyph glyph-name="arrowdown" unicode="&#x2193;" horiz-adv-x="1024" 
 />
    <glyph glyph-name="arrowboth" unicode="&#x2194;" horiz-adv-x="2048" 
 />
    <glyph glyph-name="arrowupdn" unicode="&#x2195;" horiz-adv-x="1024" 
 />
    <glyph glyph-name="arrowupdnbse" unicode="&#x21a8;" horiz-adv-x="1024" 
 />
    <glyph glyph-name="partialdiff" unicode="&#x2202;" horiz-adv-x="1012" 
 />
    <glyph glyph-name="glyph168" unicode="&#x2206;" horiz-adv-x="1253" 
 />
    <glyph glyph-name="product" unicode="&#x220f;" horiz-adv-x="1686" 
 />
    <glyph glyph-name="summation" unicode="&#x2211;" horiz-adv-x="1460" 
 />
    <glyph glyph-name="minus" unicode="&#x2212;" horiz-adv-x="1196" 
 />
    <glyph glyph-name="radical" unicode="&#x221a;" horiz-adv-x="1124" 
 />
    <glyph glyph-name="infinity" unicode="&#x221e;" horiz-adv-x="1460" 
 />
    <glyph glyph-name="orthogonal" unicode="&#x221f;" horiz-adv-x="2005" 
 />
    <glyph glyph-name="intersection" unicode="&#x2229;" horiz-adv-x="1472" 
 />
    <glyph glyph-name="integral" unicode="&#x222b;" horiz-adv-x="561" 
 />
    <glyph glyph-name="approxequal" unicode="&#x2248;" horiz-adv-x="1124" 
 />
    <glyph glyph-name="notequal" unicode="&#x2260;" horiz-adv-x="1124" 
 />
    <glyph glyph-name="equivalence" unicode="&#x2261;" horiz-adv-x="1195" 
 />
    <glyph glyph-name="lessequal" unicode="&#x2264;" horiz-adv-x="1124" 
 />
    <glyph glyph-name="greaterequal" unicode="&#x2265;" horiz-adv-x="1124" 
 />
    <glyph glyph-name="house" unicode="&#x2302;" horiz-adv-x="1237" 
 />
    <glyph glyph-name="revlogicalnot" unicode="&#x2310;" horiz-adv-x="1196" 
 />
    <glyph glyph-name="integraltp" unicode="&#x2320;" horiz-adv-x="1237" 
 />
    <glyph glyph-name="integralbt" unicode="&#x2321;" horiz-adv-x="1237" 
 />
    <glyph glyph-name="SF100000" unicode="&#x2500;" horiz-adv-x="1451" 
 />
    <glyph glyph-name="SF110000" unicode="&#x2502;" horiz-adv-x="1280" 
 />
    <glyph glyph-name="SF010000" unicode="&#x250c;" horiz-adv-x="1451" 
 />
    <glyph glyph-name="SF030000" unicode="&#x2510;" horiz-adv-x="1451" 
 />
    <glyph glyph-name="SF020000" unicode="&#x2514;" horiz-adv-x="1451" 
 />
    <glyph glyph-name="SF040000" unicode="&#x2518;" horiz-adv-x="1451" 
 />
    <glyph glyph-name="SF080000" unicode="&#x251c;" horiz-adv-x="1451" 
 />
    <glyph glyph-name="SF090000" unicode="&#x2524;" horiz-adv-x="1451" 
 />
    <glyph glyph-name="SF060000" unicode="&#x252c;" horiz-adv-x="1451" 
 />
    <glyph glyph-name="SF070000" unicode="&#x2534;" horiz-adv-x="1451" 
 />
    <glyph glyph-name="SF050000" unicode="&#x253c;" horiz-adv-x="1451" 
 />
    <glyph glyph-name="SF430000" unicode="&#x2550;" horiz-adv-x="1451" 
 />
    <glyph glyph-name="SF240000" unicode="&#x2551;" horiz-adv-x="1451" 
 />
    <glyph glyph-name="SF510000" unicode="&#x2552;" horiz-adv-x="1451" 
 />
    <glyph glyph-name="SF520000" unicode="&#x2553;" horiz-adv-x="1451" 
 />
    <glyph glyph-name="SF390000" unicode="&#x2554;" horiz-adv-x="1451" 
 />
    <glyph glyph-name="SF220000" unicode="&#x2555;" horiz-adv-x="1451" 
 />
    <glyph glyph-name="SF210000" unicode="&#x2556;" horiz-adv-x="1451" 
 />
    <glyph glyph-name="SF250000" unicode="&#x2557;" horiz-adv-x="1451" 
 />
    <glyph glyph-name="SF500000" unicode="&#x2558;" horiz-adv-x="1451" 
 />
    <glyph glyph-name="SF490000" unicode="&#x2559;" horiz-adv-x="1451" 
 />
    <glyph glyph-name="SF380000" unicode="&#x255a;" horiz-adv-x="1451" 
 />
    <glyph glyph-name="SF280000" unicode="&#x255b;" horiz-adv-x="1451" 
 />
    <glyph glyph-name="SF270000" unicode="&#x255c;" horiz-adv-x="1451" 
 />
    <glyph glyph-name="SF260000" unicode="&#x255d;" horiz-adv-x="1451" 
 />
    <glyph glyph-name="SF360000" unicode="&#x255e;" horiz-adv-x="1451" 
 />
    <glyph glyph-name="SF370000" unicode="&#x255f;" horiz-adv-x="1451" 
 />
    <glyph glyph-name="SF420000" unicode="&#x2560;" horiz-adv-x="1451" 
 />
    <glyph glyph-name="SF190000" unicode="&#x2561;" horiz-adv-x="1451" 
 />
    <glyph glyph-name="SF200000" unicode="&#x2562;" horiz-adv-x="1451" 
 />
    <glyph glyph-name="SF230000" unicode="&#x2563;" horiz-adv-x="1451" 
 />
    <glyph glyph-name="SF470000" unicode="&#x2564;" horiz-adv-x="1451" 
 />
    <glyph glyph-name="SF480000" unicode="&#x2565;" horiz-adv-x="1451" 
 />
    <glyph glyph-name="SF410000" unicode="&#x2566;" horiz-adv-x="1451" 
 />
    <glyph glyph-name="SF450000" unicode="&#x2567;" horiz-adv-x="1451" 
 />
    <glyph glyph-name="SF460000" unicode="&#x2568;" horiz-adv-x="1451" 
 />
    <glyph glyph-name="SF400000" unicode="&#x2569;" horiz-adv-x="1451" 
 />
    <glyph glyph-name="SF540000" unicode="&#x256a;" horiz-adv-x="1451" 
 />
    <glyph glyph-name="SF530000" unicode="&#x256b;" horiz-adv-x="1451" 
 />
    <glyph glyph-name="SF440000" unicode="&#x256c;" horiz-adv-x="1451" 
 />
    <glyph glyph-name="upblock" unicode="&#x2580;" horiz-adv-x="1451" 
 />
    <glyph glyph-name="dnblock" unicode="&#x2584;" horiz-adv-x="1451" 
 />
    <glyph glyph-name="block" unicode="&#x2588;" horiz-adv-x="1451" 
 />
    <glyph glyph-name="lfblock" unicode="&#x258c;" horiz-adv-x="1451" 
 />
    <glyph glyph-name="rtblock" unicode="&#x2590;" horiz-adv-x="1451" 
 />
    <glyph glyph-name="ltshade" unicode="&#x2591;" horiz-adv-x="1451" 
 />
    <glyph glyph-name="shade" unicode="&#x2592;" horiz-adv-x="1451" 
 />
    <glyph glyph-name="dkshade" unicode="&#x2593;" horiz-adv-x="1493" 
 />
    <glyph glyph-name="filledbox" unicode="&#x25a0;" horiz-adv-x="1237" 
 />
    <glyph glyph-name="H22073" unicode="&#x25a1;" horiz-adv-x="1237" 
 />
    <glyph glyph-name="H18543" unicode="&#x25aa;" horiz-adv-x="726" 
 />
    <glyph glyph-name="H18551" unicode="&#x25ab;" horiz-adv-x="726" 
 />
    <glyph glyph-name="filledrect" unicode="&#x25ac;" horiz-adv-x="2048" 
 />
    <glyph glyph-name="triagup" unicode="&#x25b2;" horiz-adv-x="2027" 
 />
    <glyph glyph-name="triagrt" unicode="&#x25ba;" horiz-adv-x="2027" 
 />
    <glyph glyph-name="triagdn" unicode="&#x25bc;" horiz-adv-x="2027" 
 />
    <glyph glyph-name="triaglf" unicode="&#x25c4;" horiz-adv-x="2027" 
 />
    <glyph glyph-name="lozenge" unicode="&#x25ca;" horiz-adv-x="1012" 
 />
    <glyph glyph-name="circle" unicode="&#x25cb;" horiz-adv-x="1237" 
 />
    <glyph glyph-name="H18533" unicode="&#x25cf;" horiz-adv-x="1237" 
 />
    <glyph glyph-name="invbullet" unicode="&#x25d8;" horiz-adv-x="1237" 
 />
    <glyph glyph-name="invcircle" unicode="&#x25d9;" horiz-adv-x="1237" 
 />
    <glyph glyph-name="openbullet" unicode="&#x25e6;" horiz-adv-x="726" 
 />
    <glyph glyph-name="smileface" unicode="&#x263a;" horiz-adv-x="2091" 
 />
    <glyph glyph-name="invsmileface" unicode="&#x263b;" horiz-adv-x="2155" 
 />
    <glyph glyph-name="sun" unicode="&#x263c;" horiz-adv-x="1877" 
 />
    <glyph glyph-name="female" unicode="&#x2640;" horiz-adv-x="1536" 
 />
    <glyph glyph-name="male" unicode="&#x2642;" horiz-adv-x="1536" 
 />
    <glyph glyph-name="spade" unicode="&#x2660;" horiz-adv-x="1088" 
 />
    <glyph glyph-name="club" unicode="&#x2663;" horiz-adv-x="1344" 
 />
    <glyph glyph-name="heart" unicode="&#x2665;" horiz-adv-x="1216" 
 />
    <glyph glyph-name="diamond" unicode="&#x2666;" horiz-adv-x="1045" 
 />
    <glyph glyph-name="musicalnote" unicode="&#x266a;" horiz-adv-x="1024" 
 />
    <glyph glyph-name="musicalnotedbl" unicode="&#x266b;" horiz-adv-x="1536" 
 />
    <glyph glyph-name="fi" unicode="&#xf001;" horiz-adv-x="1024" 
 />
    <glyph glyph-name="fi" unicode="&#xfb01;" horiz-adv-x="1024" 
 />
    <glyph glyph-name="fl" unicode="&#xf002;" horiz-adv-x="1024" 
 />
    <glyph glyph-name="fl" unicode="&#xfb02;" horiz-adv-x="1024" 
 />
    <glyph glyph-name="commaaccent" unicode="&#xf004;" horiz-adv-x="682" 
 />
    <glyph glyph-name="undercommaaccent" unicode="&#xf005;" horiz-adv-x="682" 
 />
    <glyph glyph-name="pi1" horiz-adv-x="1124" 
 />
    <glyph glyph-name="middot" horiz-adv-x="682" 
 />
  </font>
</defs>
</svg>
